<svg width="26" height="26" viewBox="0 0 26 26" fill="none" xmlns="http://www.w3.org/2000/svg">
<g id="Group 42">
<g id="Group">
<path id="Vector" d="M16.12 24.8256H1.62667C1.28 24.8256 1 24.5439 1 24.1951V4.04527C1 3.69647 1.28 3.41475 1.62667 3.41475H7.50668C7.50668 2.08663 8.5867 1 9.9067 1C11.24 1 12.3067 2.08663 12.3067 3.41475H18.1867C18.5334 3.41475 18.8134 3.69647 18.8134 4.04527V12.2689" stroke="white" stroke-miterlimit="10" stroke-linecap="round" stroke-linejoin="round"/>
<path id="Vector_2" d="M12.3068 3.41471H14.7735V5.72215H5.16016V3.41471H7.5068" stroke="white" stroke-miterlimit="10" stroke-linecap="round" stroke-linejoin="round"/>
<path id="Vector_3" d="M8.20006 8.13704H3.41339V12.9531H8.20006V8.13704Z" stroke="white" stroke-miterlimit="10" stroke-linecap="round" stroke-linejoin="round"/>
<g id="Group_2">
<path id="Vector_4" d="M10.2532 9.35775H16.6133" stroke="white" stroke-miterlimit="10" stroke-linecap="round" stroke-linejoin="round"/>
<path id="Vector_5" d="M10.2531 11.7322H16.6131" stroke="white" stroke-miterlimit="10" stroke-linecap="round" stroke-linejoin="round"/>
</g>
<path id="Vector_6" d="M8.20006 15.7568H3.41339V20.5729H8.20006V15.7568Z" stroke="white" stroke-miterlimit="10" stroke-linecap="round" stroke-linejoin="round"/>
<g id="Group_3">
<path id="Vector_7" d="M10.2532 16.9775H14.4133" stroke="white" stroke-miterlimit="10" stroke-linecap="round" stroke-linejoin="round"/>
<path id="Vector_8" d="M10.2531 19.3522H13.4397" stroke="white" stroke-miterlimit="10" stroke-linecap="round" stroke-linejoin="round"/>
</g>
<path id="Vector_9" d="M25 20.5729C25 23.3365 22.7733 25 20.0133 25C17.2533 25 15.0267 23.3499 15.0267 20.5729C15.0267 17.8094 18.16 14.9653 20.0133 14.9653C21.9733 14.9653 25 17.796 25 20.5729Z" stroke="white" stroke-miterlimit="10" stroke-linecap="round" stroke-linejoin="round"/>
<path id="Vector_10" d="M17.707 12.9127C17.707 12.9127 20.0137 13.825 20.0137 14.9653C20.0137 14.9653 20.0537 11.598 23.1604 11.4639" stroke="white" stroke-miterlimit="10" stroke-linecap="round" stroke-linejoin="round"/>
<path id="Vector_11" d="M20.4401 23.6182C20.4401 23.6182 23.3468 22.9877 23.6801 20.5729" stroke="white" stroke-miterlimit="10" stroke-linecap="round" stroke-linejoin="round"/>
</g>
</g>
</svg>
