<svg width="58" height="67" viewBox="0 0 58 67" fill="none" xmlns="http://www.w3.org/2000/svg">
<g id="freepik--Character--inject-151">
<path id="Vector" d="M8.91199 22.9503L12.0729 14.061C12.0729 14.061 13.8489 7.44467 15.6273 5.36956C17.4056 3.29444 20.7738 3.98694 20.7738 3.98694C20.7738 3.98694 24.2292 0.0369178 25.0136 1.22169C25.7979 2.40646 23.0374 4.67943 22.4438 5.8642C21.8502 7.04897 20.9599 10.0191 20.0672 11.6915C19.1745 13.3638 17.0052 15.0503 17.0052 15.0503L16.6118 25.122L9.50084 27.8896L8.91199 22.9503Z" fill="white" stroke="#263238" stroke-linecap="round" stroke-linejoin="round"/>
<path id="Vector_2" d="M20.7738 3.98694C20.7738 3.98694 17.415 3.2968 15.6367 5.36956C13.8584 7.44232 12.0824 14.061 12.0824 14.061L10.1981 19.3301C10.92 20.0517 11.8531 20.5245 12.862 20.6797C14.3412 20.8752 15.7686 20.2864 16.8309 19.6457L17.0099 15.0503C17.0099 15.0503 19.1839 13.3709 20.0719 11.6915C20.9599 10.0121 21.8503 7.04897 22.4415 5.8642C23.0327 4.67943 25.8003 2.40646 25.0112 1.22169C24.2222 0.0369179 20.7738 3.98694 20.7738 3.98694Z" fill="#90CAF9" stroke="#263238" stroke-linecap="round" stroke-linejoin="round"/>
<path id="Vector_3" d="M21.4546 4.87728H24.5167V14.1364C24.5167 14.2694 24.4905 14.4011 24.4396 14.524C24.3887 14.6469 24.3141 14.7585 24.22 14.8526C24.126 14.9466 24.0143 15.0212 23.8914 15.0721C23.7685 15.123 23.6368 15.1492 23.5038 15.1492H22.4651C22.3321 15.1492 22.2004 15.123 22.0775 15.0721C21.9546 15.0212 21.843 14.9466 21.7489 14.8526C21.6549 14.7585 21.5803 14.6469 21.5294 14.524C21.4785 14.4011 21.4523 14.2694 21.4523 14.1364V4.87728H21.4546Z" stroke="#263238" stroke-linecap="round" stroke-linejoin="round"/>
<path id="Vector_4" d="M22.9856 14.3554C22.8526 14.3554 22.7209 14.3292 22.598 14.2783C22.4751 14.2274 22.3635 14.1528 22.2694 14.0588C22.1754 13.9647 22.1008 13.8531 22.0499 13.7302C21.999 13.6073 21.9728 13.4756 21.9728 13.3426V5.88068H23.9984V13.3426C23.9984 13.4756 23.9722 13.6073 23.9213 13.7302C23.8704 13.8531 23.7958 13.9647 23.7018 14.0588C23.6077 14.1528 23.4961 14.2274 23.3732 14.2783C23.2503 14.3292 23.1186 14.3554 22.9856 14.3554Z" fill="#90CAF9"/>
<g id="Vector_5">
<path d="M12.8621 13.0812C12.8621 13.0812 13.0599 7.94637 13.4556 6.36589C13.8513 4.78542 18.0981 1.72338 18.6893 1.72338C19.2805 1.72338 25.6025 3.30386 25.8992 4.19185C26.196 5.07984 25.2068 6.36589 23.7276 6.85817C22.2484 7.35045 16.911 8.1348 16.911 8.1348C16.911 8.1348 17.6035 11.5925 16.7131 12.8762" fill="#90CAF9"/>
<path d="M12.8621 13.0812C12.8621 13.0812 13.0599 7.94637 13.4556 6.36589C13.8513 4.78542 18.0981 1.72338 18.6893 1.72338C19.2805 1.72338 25.6025 3.30386 25.8992 4.19185C26.196 5.07984 25.2068 6.36589 23.7276 6.85817C22.2484 7.35045 16.911 8.1348 16.911 8.1348C16.911 8.1348 17.6035 11.5925 16.7131 12.8762" stroke="#263238" stroke-linecap="round" stroke-linejoin="round"/>
</g>
<path id="Vector_6" d="M24.4176 6.65327C24.4176 6.65327 24.8133 5.76528 24.3187 5.66635C23.8241 5.56742 19.6762 5.56742 18.7882 5.56742C17.9002 5.56742 15.5283 6.35884 15.5283 6.35884" stroke="#263238" stroke-linecap="round" stroke-linejoin="round"/>
<path id="Vector_7" d="M25.5035 5.36956C25.2553 4.95676 24.8715 4.6429 24.4177 4.48158C23.7275 4.28372 19.6762 4.08587 18.2936 4.08587C16.911 4.08587 15.3305 4.67943 15.3305 4.67943" stroke="#263238" stroke-linecap="round" stroke-linejoin="round"/>
<path id="Vector_8" d="M42.9853 26.9003C43.7473 29.2962 44.6679 31.6388 45.7411 33.9124C47.5194 37.6669 47.3216 41.3201 46.728 42.1116C46.1345 42.903 44.0617 43.0985 44.0617 43.0985C44.0617 43.0985 38.828 40.5311 37.7421 37.8624C36.6563 35.1937 38.1355 28.0851 39.716 27.4986C40.7672 27.1272 41.8707 26.9253 42.9853 26.9003Z" fill="#263238" stroke="#263238" stroke-linecap="round" stroke-linejoin="round"/>
<path id="Vector_9" d="M27.084 34.7038L22.9361 35.3939C22.9361 35.3939 21.5535 33.6156 20.1709 33.5096C18.7882 33.4036 16.2208 33.3118 16.2208 33.3118L16.7131 24.3235C16.7131 24.3235 11.2815 25.8145 10.8811 26.0123C10.4807 26.2102 8.9968 22.3568 8.9968 22.3568C8.9968 22.3568 1.49011 42.406 1.09441 44.0854C0.698697 45.7648 1.58904 47.8375 2.97873 49.418C4.36842 50.9985 9.60214 51.0032 9.99785 51.0032C10.3936 51.0032 12.7631 51.8936 13.9479 51.9925C15.1326 52.0914 18.1876 51.0032 18.1876 51.0032C18.1876 51.0032 14.2376 74.3218 13.7453 76.0907C13.253 77.8596 12.9539 79.1527 12.9539 79.1527H57C57 79.1527 55.2217 69.2765 54.1358 64.9307C53.05 60.585 51.0738 49.8208 50.9749 48.5371C50.8759 47.2534 50.777 43.8946 49.5922 42.6109C48.4075 41.3272 43.1832 38.8517 42.8864 38.7551C42.5896 38.6585 32.3153 34.2092 32.3153 34.2092L27.084 34.7038Z" fill="white" stroke="#263238" stroke-linecap="round" stroke-linejoin="round"/>
<path id="Vector_10" d="M15.9618 46.2594L15.9241 48.1343" stroke="#263238" stroke-linecap="round" stroke-linejoin="round"/>
<path id="Vector_11" d="M16.2208 33.6156L15.9805 45.3691" stroke="#263238" stroke-linecap="round" stroke-linejoin="round"/>
<path id="Vector_12" d="M16.2208 36.2843L17.7023 47.0485" stroke="#263238" stroke-linecap="round" stroke-linejoin="round"/>
<path id="Vector_13" d="M8.49978 39.0095L8.3349 40.7973" stroke="#263238" stroke-linecap="round" stroke-linejoin="round"/>
<path id="Vector_14" d="M9.43495 28.8294L8.64117 37.4855" stroke="#263238" stroke-linecap="round" stroke-linejoin="round"/>
<path id="Vector_15" d="M24.4694 38.1286L25.1101 39.1485" stroke="#263238" stroke-linecap="round" stroke-linejoin="round"/>
<path id="Vector_16" d="M22.9361 35.6907L24.1774 37.6669" stroke="#263238" stroke-linecap="round" stroke-linejoin="round"/>
<path id="Vector_17" d="M40.107 53.3586C40.1494 53.8462 40.1894 54.3432 40.2201 54.8496C40.4721 58.8962 40.4368 64.0357 40.1753 66.9752" stroke="#263238" stroke-linecap="round" stroke-linejoin="round"/>
<path id="Vector_18" d="M39.0353 46.0569C39.0353 46.0569 39.6218 48.7326 40.0011 52.2798" stroke="#263238" stroke-linecap="round" stroke-linejoin="round"/>
<path id="Vector_19" d="M49.3026 67.1095C49.0152 71.9663 49.2083 79.1456 49.2083 79.1456" stroke="#263238" stroke-linecap="round" stroke-linejoin="round"/>
<path id="Vector_20" d="M47.8257 51.2953C47.8257 51.2953 50.2942 60.1846 49.6017 64.1346C49.5122 64.6528 49.4368 65.2935 49.3779 66.0189" stroke="#263238" stroke-linecap="round" stroke-linejoin="round"/>
<path id="Vector_21" d="M19.0002 62.9381C19.1714 62.4696 19.3145 61.9914 19.4289 61.506" stroke="#263238" stroke-linecap="round" stroke-linejoin="round"/>
<path id="Vector_22" d="M14.4849 72.3856C14.4849 72.3856 17.163 67.59 18.6257 63.9321" stroke="#263238" stroke-linecap="round" stroke-linejoin="round"/>
<path id="Vector_23" d="M31.5286 30.457C31.5286 30.457 30.4428 29.0744 30.0471 29.8634C29.6514 30.6525 26.0971 33.6156 26.0971 33.6156C26.0971 33.6156 25.7013 36.7766 26.196 38.562C26.6906 40.3474 26.985 41.624 27.1829 41.9208C27.3808 42.2176 29.7503 38.8587 30.9351 38.7598C32.1198 38.6609 32.9113 38.9577 33.7992 39.5489C34.6872 40.1401 38.1285 45.5481 38.1285 45.5481C38.1285 45.5481 40.4179 42.2152 40.5169 41.624C40.6158 41.0328 41.207 40.5381 41.5038 40.3403C41.8006 40.1424 45.157 41.4261 45.7435 41.7229C46.33 42.0197 46.8294 44.1914 47.0272 43.4023C47.2251 42.6133 44.262 39.6478 43.275 38.1663C42.2881 36.6847 40.8066 33.6227 39.325 32.8336C37.8435 32.0445 31.5286 30.457 31.5286 30.457Z" fill="white" stroke="#263238" stroke-linecap="round" stroke-linejoin="round"/>
<path id="Vector_24" d="M31.3308 24.9265L30.6406 32.0375C30.6406 32.0375 35.1818 39.7397 35.7754 40.3332C36.369 40.9268 37.7516 45.6659 38.5407 44.573C39.3297 43.4801 39.9233 39.4358 39.9233 37.8553C39.9233 36.2749 40.2201 28.8695 40.2201 28.8695C40.2201 28.8695 35.9803 28.4738 34.4917 27.5858C33.0031 26.6978 31.3308 24.9265 31.3308 24.9265Z" fill="white" stroke="#263238" stroke-linecap="round" stroke-linejoin="round"/>
<path id="Vector_25" d="M31.3308 24.9265L31.2484 25.7839L39.9634 35.7873C40.0458 33.0385 40.213 28.8765 40.213 28.8765C40.213 28.8765 35.9733 28.4808 34.4847 27.5928C32.9961 26.7048 31.3308 24.9265 31.3308 24.9265Z" fill="#263238" stroke="#263238" stroke-linecap="round" stroke-linejoin="round"/>
<path id="Vector_26" d="M40.4179 48.7279L41.5038 55.5421L49.3049 56.4301L47.9222 50.1105L40.4179 48.7279Z" fill="white" stroke="#263238" stroke-linecap="round" stroke-linejoin="round"/>
<path id="Vector_27" d="M39.3321 7.64252C39.3321 7.64252 38.3429 5.17406 34.5907 7.04896C30.8385 8.92386 29.5525 14.8524 29.5525 16.2351C29.5525 17.6177 29.0602 19.2052 29.96 19.2052C30.8597 19.2052 31.9362 16.6355 32.6263 15.6486C33.3164 14.6616 38.8493 12.0942 40.034 12.1932C41.2188 12.2921 45.3667 17.5258 45.3667 17.5258L45.4656 20.6868C45.4656 20.6868 48.9234 19.2052 49.6135 16.5389C50.3036 13.8726 46.7493 8.83436 43.6873 7.25388C40.6253 5.6734 39.3321 7.64252 39.3321 7.64252Z" fill="#263238" stroke="#263238" stroke-linecap="round" stroke-linejoin="round"/>
<path id="Vector_28" d="M31.0341 17.4198C31.0341 17.4198 30.6407 15.2458 29.5525 16.2421C28.4643 17.2385 28.9613 21.1885 29.6514 21.5748C30.3416 21.961 30.8291 20.1921 30.8291 20.1921L31.0341 17.4198Z" fill="white" stroke="#263238" stroke-linecap="round" stroke-linejoin="round"/>
<path id="Vector_29" d="M30.8385 15.2458C30.8385 15.2458 30.6406 21.7655 30.6406 23.445C30.6406 25.1244 30.935 26.2102 33.6037 28.184C36.2724 30.1579 38.046 30.6549 39.8244 29.9624C41.6027 29.2699 44.0641 27.5928 44.4669 26.3091C44.8696 25.0254 46.0473 17.7166 46.3512 16.8263C46.655 15.9359 40.7147 11.1968 40.3237 10.8035C40.0853 10.5672 39.7685 10.4264 39.4334 10.4078C39.4334 10.4078 37.8552 11.3947 35.09 12.7773C32.3247 14.1599 31.6322 14.6616 31.6322 14.6616C31.6322 14.6616 31.034 17.4198 30.8385 15.2458Z" fill="white" stroke="#263238" stroke-linecap="round" stroke-linejoin="round"/>
<path id="Vector_30" d="M36.555 15.9336C36.5079 16.4047 36.2724 16.7485 36.0274 16.725C35.7825 16.7014 35.6223 16.3057 35.6694 15.8441C35.7165 15.3824 35.9521 15.0291 36.197 15.0526C36.442 15.0762 36.6092 15.4719 36.555 15.9336Z" fill="#263238"/>
<path id="Vector_31" d="M42.9853 17.123C42.9382 17.5941 42.7027 17.938 42.4601 17.9145C42.2175 17.8909 42.055 17.4952 42.1021 17.0335C42.1492 16.5719 42.3824 16.2186 42.6273 16.2445C42.8723 16.2704 43.0325 16.6614 42.9853 17.123Z" fill="#263238"/>
<path id="Vector_32" d="M34.3928 14.16C34.8541 13.7785 35.4112 13.5309 36.0034 13.4441C36.5956 13.3573 37.2003 13.4346 37.7516 13.6677" stroke="#263238" stroke-linecap="round" stroke-linejoin="round"/>
<path id="Vector_33" d="M45.2559 16.6284C44.1701 14.9513 41.9984 15.2458 41.9984 15.2458C41.9984 15.2458 41.3059 16.4235 41.207 17.222" stroke="#263238" stroke-linecap="round" stroke-linejoin="round"/>
<path id="Vector_34" d="M40.0222 17.222C38.0672 16.5154 31.9549 17.9592 30.7513 18.256C30.6971 20.2016 30.6406 22.5334 30.6406 23.4379C30.6406 25.115 30.935 26.2031 33.6037 28.177C36.2724 30.1508 38.046 30.6478 39.8244 29.9553C41.6027 29.2628 44.0641 27.5858 44.4669 26.3021C44.6836 25.5955 45.1405 23.0705 45.5551 20.7904C44.3726 19.8647 41.6804 17.825 40.0222 17.222Z" fill="white" stroke="#263238" stroke-linecap="round" stroke-linejoin="round"/>
<path id="Vector_35" d="M31.5286 19.8883C31.5286 19.8883 34.9864 19.0003 37.9495 19.1982" stroke="#263238" stroke-linecap="round" stroke-linejoin="round"/>
<path id="Vector_36" d="M34.692 22.3874L36.1712 22.3568" stroke="#263238" stroke-linecap="round" stroke-linejoin="round"/>
<path id="Vector_37" d="M31.2318 22.4557L33.8039 22.4062" stroke="#263238" stroke-linecap="round" stroke-linejoin="round"/>
<path id="Vector_38" d="M44.3679 24.4319L42.2928 23.8383" stroke="#263238" stroke-linecap="round" stroke-linejoin="round"/>
<path id="Vector_39" d="M43.2821 20.284L44.9615 21.0731" stroke="#263238" stroke-linecap="round" stroke-linejoin="round"/>
<path id="Vector_40" d="M31.3308 24.5308C31.3308 24.5308 33.307 25.2209 34.3928 25.2209" stroke="#263238" stroke-linecap="round" stroke-linejoin="round"/>
<path id="Vector_41" d="M45.555 20.7975C45.555 20.7975 46.6385 19.5915 46.6385 21.0731C46.6385 22.5546 44.8625 24.1351 44.8625 24.1351L45.555 20.7975Z" fill="white" stroke="#263238" stroke-linecap="round" stroke-linejoin="round"/>
</g>
</svg>
