<svg width="26" height="22" viewBox="0 0 26 22" fill="none" xmlns="http://www.w3.org/2000/svg">
<g id="Group 58">
<g id="Group">
<path id="Vector" d="M21.5733 21H4.42667C2.54667 21 1 19.444 1 17.5526V4.44734C1 2.55599 2.54667 1 4.42667 1H21.5733C23.4533 1 25 2.55599 25 4.44734V17.5526C25 19.444 23.4533 21 21.5733 21Z" stroke="white" stroke-miterlimit="10" stroke-linecap="round" stroke-linejoin="round"/>
<path id="Vector_2" d="M1 10.9933H4.76L6.93333 9.02146L8.38667 12.6566L10.9733 2.87793L11.8267 18.0087L14.88 8.88733L16.8933 13.1529L17.9733 10.9933H21.3867" stroke="white" stroke-miterlimit="10" stroke-linecap="round" stroke-linejoin="round"/>
<path id="Vector_3" d="M21.3865 12.2139C22.0566 12.2139 22.5998 11.6674 22.5998 10.9933C22.5998 10.3191 22.0566 9.77261 21.3865 9.77261C20.7164 9.77261 20.1732 10.3191 20.1732 10.9933C20.1732 11.6674 20.7164 12.2139 21.3865 12.2139Z" fill="#89D9F9"/>
</g>
</g>
</svg>
