<svg width="24" height="52" viewBox="0 0 24 52" fill="none" xmlns="http://www.w3.org/2000/svg">
<g id="freepik--Blister--inject-44">
<path id="Vector" d="M24 55.4619V14.9582C23.964 14.3054 23.7749 13.6703 23.448 13.1042C23.121 12.5381 22.6654 12.0568 22.1181 11.6994L2.92665 0.606026C1.88656 0.00586984 1.04199 0.491969 1.04199 1.69228V42.2177C1.07807 42.8708 1.2675 43.5061 1.59494 44.0723C1.92238 44.6385 2.3786 45.1195 2.92665 45.4765L22.1181 56.5482C23.1581 57.1592 24 56.6731 24 55.4619Z" fill="#E0E0E0"/>
<path id="Vector_2" d="M23.1256 55.9833V15.4687C23.0905 14.8158 22.9017 14.1803 22.5747 13.6141C22.2477 13.0478 21.7917 12.5667 21.2437 12.2099L2.05226 1.12743C1.01217 0.527278 0.167603 1.01338 0.167603 2.21369V42.7283C0.203677 43.3813 0.393113 44.0167 0.720551 44.5829C1.04799 45.149 1.50421 45.6301 2.05226 45.987L21.2247 57.0696C22.2756 57.6697 23.1256 57.1836 23.1256 55.9833Z" fill="#F5F5F5"/>
<path id="Vector_3" d="M21.2247 12.21L3.91791 2.21642C9.05861 5.53764 19.397 11.5175 20.6897 12.5358C21.9823 13.5542 22.6504 14.2195 22.6504 17.5055C22.6504 20.7914 23.1256 53.7511 23.1256 53.7511V15.4606C23.0871 14.8073 22.8949 14.1724 22.5645 13.6076C22.2342 13.0427 21.7751 12.5638 21.2247 12.21Z" fill="#FAFAFA"/>
<path id="Vector_4" d="M10.9758 8.22609C11.0437 8.27197 11.0998 8.3333 11.1394 8.40505C11.1791 8.47681 11.2012 8.55693 11.2039 8.63887V49.0231C11.2039 49.1779 11.1034 49.2431 10.9758 49.1725C10.9086 49.126 10.8533 49.0644 10.8142 48.9928C10.775 48.9211 10.7532 48.8413 10.7504 48.7597V8.37545C10.7504 8.2098 10.8508 8.15548 10.9758 8.22609Z" fill="#E0E0E0"/>
<g id="Vector_5" style="mix-blend-mode:hard-light" opacity="0.7">
<path d="M9.00429 41.9217C9.00446 41.7934 8.99356 41.6653 8.9717 41.5388C8.9717 41.5089 8.95269 41.4139 8.94726 41.3949C8.7064 40.3207 8.04908 39.386 7.11963 38.796L3.82285 36.8951L3.79298 36.8815C3.43747 36.6538 3.02724 36.5261 2.60534 36.5116C2.18344 36.4972 1.76543 36.5965 1.39517 36.7993C1.02491 37.0021 0.716049 37.3008 0.501012 37.664C0.285974 38.0273 0.17269 38.4418 0.173035 38.8639C0.173768 38.9923 0.185572 39.1204 0.208332 39.2468C0.214907 39.2952 0.223973 39.3433 0.23549 39.3908C0.474088 40.4637 1.1284 41.3983 2.05497 41.9896L5.35447 43.8906L5.38163 43.9041C5.73717 44.1325 6.14768 44.2608 6.56999 44.2757C6.9923 44.2905 7.41081 44.1913 7.7815 43.9884C8.1522 43.7856 8.46138 43.4866 8.67656 43.1229C8.89173 42.7592 9.00494 42.3443 9.00429 41.9217Z" fill="#FAFAFA"/>
</g>
<path id="Vector_6" d="M1.92456 37.8428C1.92456 38.9698 2.76912 40.3684 3.80921 40.9685L7.106 42.8695C8.14609 43.4696 8.99065 43.0433 8.99065 41.9163C8.99065 40.7893 8.14609 39.3907 7.106 38.7906L3.80921 36.8896C2.75826 36.2922 1.92456 36.724 1.92456 37.8428Z" fill="#E0E0E0"/>
<path id="Vector_7" d="M2.41606 36.5122C1.80943 36.5367 1.23579 36.7949 0.815175 37.2327C0.394562 37.6706 0.159568 38.2541 0.159363 38.8612C0.160095 38.9896 0.171908 39.1177 0.194667 39.2441C0.201243 39.2925 0.210309 39.3406 0.221825 39.388C0.431854 40.3085 0.942003 41.1329 1.67197 41.7316C0.762236 40.4716 0.248983 39.6677 0.468949 38.4186C0.559865 37.9399 0.795218 37.5006 1.14333 37.1598C1.49145 36.819 1.93561 36.593 2.41606 36.5122Z" fill="white"/>
<path id="Vector_8" d="M3.98308 42.3861C3.84321 42.2859 3.73234 42.1505 3.66174 41.9935C3.59115 41.8366 3.56335 41.6638 3.58117 41.4927C3.60697 41.015 3.7451 40.5501 3.98433 40.1358C4.22357 39.7215 4.55715 39.3695 4.958 39.1083C5.09717 39.0069 5.26084 38.9444 5.43219 38.9272C5.60353 38.91 5.77637 38.9388 5.93291 39.0106L7.7035 40.0371C8.15148 40.2967 8.47798 40.7237 8.61116 41.2241C8.74434 41.7244 8.67329 42.2572 8.41365 42.7052C8.154 43.1532 7.72703 43.4797 7.22666 43.6128C6.72629 43.746 6.19351 43.675 5.74553 43.4153L3.98308 42.3861Z" fill="#F5F5F5"/>
<path id="Vector_9" d="M1.54175 40.974C1.10457 40.7095 0.788496 40.2842 0.661343 39.7893C0.534191 39.2944 0.606094 38.7694 0.861627 38.3269C1.11716 37.8844 1.53595 37.5598 2.02815 37.4225C2.52034 37.2853 3.0467 37.3465 3.49429 37.593L5.93836 39.0106C5.78182 38.9388 5.609 38.91 5.43765 38.9272C5.26631 38.9444 5.10263 39.0069 4.96345 39.1083C4.56261 39.3695 4.22902 39.7215 3.98979 40.1358C3.75056 40.5501 3.61243 41.0149 3.58662 41.4927C3.56881 41.6638 3.59662 41.8366 3.66721 41.9935C3.7378 42.1505 3.84866 42.2859 3.98854 42.3861L1.54175 40.974Z" fill="#90CAF9"/>
<path id="Vector_10" opacity="0.4" d="M1.98157 38.1117C1.88295 38.2828 1.85616 38.4861 1.90705 38.677C1.95795 38.8678 2.08239 39.0307 2.25313 39.1301L5.20231 40.8409C5.45092 40.4303 5.59022 39.9628 5.60694 39.4831C5.60694 39.4342 5.60694 39.3908 5.60694 39.3473L3.00536 37.8374C2.92031 37.7875 2.82618 37.755 2.72845 37.7417C2.63072 37.7285 2.53133 37.7348 2.43607 37.7603C2.3408 37.7859 2.25157 37.8301 2.17355 37.8904C2.09552 37.9507 2.03026 38.0259 1.98157 38.1117Z" fill="white"/>
<path id="Vector_11" d="M3.98308 42.3861C3.84321 42.2859 3.73234 42.1505 3.66174 41.9935C3.59115 41.8366 3.56335 41.6638 3.58117 41.4927C3.60697 41.015 3.7451 40.5501 3.98433 40.1358C4.22357 39.7215 4.55715 39.3695 4.958 39.1083C5.09717 39.0069 5.26084 38.9444 5.43219 38.9272C5.60353 38.91 5.77637 38.9388 5.93291 39.0106L7.7035 40.0371C8.15148 40.2967 8.47798 40.7237 8.61116 41.2241C8.74434 41.7244 8.67329 42.2572 8.41365 42.7052C8.154 43.1532 7.72703 43.4797 7.22666 43.6128C6.72629 43.746 6.19351 43.675 5.74553 43.4153L3.98308 42.3861Z" fill="#F5F5F5"/>
<path id="Vector_12" opacity="0.1" d="M4.95795 39.1083C4.55711 39.3695 4.22352 39.7215 3.98429 40.1358C3.74506 40.5501 3.60693 41.015 3.58112 41.4927C3.56331 41.6638 3.59111 41.8366 3.6617 41.9935C3.73229 42.1505 3.84316 42.2859 3.98304 42.3861L3.84454 42.3046L3.73863 42.2449C3.59833 42.1451 3.48715 42.0097 3.41652 41.8527C3.34588 41.6956 3.31834 41.5226 3.33672 41.3514C3.36252 40.8737 3.50065 40.4089 3.73989 39.9946C3.97912 39.5803 4.31271 39.2283 4.71355 38.9671C4.85272 38.8657 5.01639 38.8032 5.18774 38.786C5.35908 38.7688 5.53192 38.7976 5.68846 38.8694L5.93287 39.0106C5.77632 38.9388 5.60349 38.91 5.43215 38.9272C5.2608 38.9444 5.09713 39.0069 4.95795 39.1083Z" fill="black"/>
<path id="Vector_13" d="M8.66484 41.5198C8.70521 41.8784 8.64514 42.2411 8.49134 42.5676C8.33754 42.894 8.09605 43.1713 7.79383 43.3684C7.4916 43.5656 7.14054 43.6749 6.77981 43.6841C6.41908 43.6934 6.06288 43.6022 5.75096 43.4208L3.98308 42.3915C3.84321 42.2913 3.73234 42.1559 3.66174 41.999C3.59115 41.842 3.56335 41.6692 3.58117 41.4981C3.58305 41.297 3.61135 41.0971 3.66535 40.9034L6.62268 42.6142C7.59488 43.1682 8.65398 42.1553 8.66484 41.5198Z" fill="#E0E0E0"/>
<path id="Vector_14" d="M7.99141 41.5931C7.94248 41.6779 7.8773 41.7523 7.7996 41.8118C7.7219 41.8714 7.6332 41.9151 7.53859 41.9403C7.44399 41.9655 7.34533 41.9718 7.24828 41.9589C7.15124 41.9459 7.0577 41.9139 6.97304 41.8647L3.98584 40.1348C4.21822 39.7146 4.55371 39.3604 4.96075 39.1056C4.99944 39.0827 5.03933 39.0618 5.08024 39.0432L7.72256 40.5721C7.89358 40.6718 8.01797 40.8355 8.06839 41.0269C8.1188 41.2184 8.09111 41.4221 7.99141 41.5931Z" fill="white"/>
<path id="Vector_15" opacity="0.1" d="M0.966029 38.1035C0.987754 38.0737 1.0122 38.0465 1.03664 38.0166L1.08824 37.9569C1.10725 37.9352 1.12897 37.9162 1.15069 37.8944L1.21587 37.8293L1.25389 37.7994C1.35662 37.7115 1.46862 37.635 1.58791 37.5713L1.72098 37.5061C1.17785 37.8374 0.827533 39.2577 1.79973 39.8198C2.13104 40.0126 2.628 40.3086 3.65723 40.9061C3.60323 41.0998 3.57492 41.2997 3.57304 41.5008C3.55523 41.6719 3.58303 41.8448 3.65362 42.0017C3.72421 42.1586 3.83508 42.294 3.97496 42.3943L1.53089 40.9821C1.08317 40.7226 0.756596 40.2962 0.62272 39.7963C0.488845 39.2965 0.55859 38.7639 0.816672 38.3154C0.84926 38.2638 0.881846 38.2122 0.917149 38.1633L0.966029 38.1035Z" fill="black"/>
<g id="Vector_16" style="mix-blend-mode:hard-light" opacity="0.7">
<path d="M21.3496 48.9932C21.3493 48.865 21.3393 48.737 21.3197 48.6103C21.3197 48.5805 21.298 48.4854 21.2925 48.4664C21.0529 47.3924 20.3965 46.4576 19.4676 45.8676L16.1681 43.9666L16.1383 43.953C15.7827 43.7254 15.3725 43.5976 14.9506 43.5832C14.5287 43.5687 14.1107 43.6681 13.7404 43.8708C13.3702 44.0736 13.0613 44.3723 12.8463 44.7356C12.6313 45.0988 12.518 45.5133 12.5183 45.9354C12.519 46.0639 12.5309 46.192 12.5536 46.3183C12.5536 46.3455 12.5726 46.4188 12.5808 46.4623C12.8188 47.5355 13.4733 48.4703 14.4002 49.0611L17.6997 50.9621H17.7269C18.0825 51.1904 18.493 51.3188 18.9153 51.3336C19.3376 51.3485 19.7561 51.2492 20.1268 51.0464C20.4975 50.8435 20.8067 50.5445 21.0218 50.1809C21.237 49.8172 21.3502 49.4022 21.3496 48.9797V48.9932Z" fill="#FAFAFA"/>
</g>
<path id="Vector_17" d="M14.2861 44.9143C14.2861 46.0413 15.128 47.4426 16.1681 48.0428L19.4676 49.9437C20.5049 50.5439 21.3495 50.1175 21.3495 48.9905C21.3495 47.8635 20.5049 46.465 19.4676 45.8648L16.1681 43.9639C15.128 43.3637 14.2861 43.7846 14.2861 44.9143Z" fill="#E0E0E0"/>
<path id="Vector_18" d="M14.775 43.5837C14.1686 43.6089 13.5954 43.8673 13.1749 44.305C12.7544 44.7426 12.5192 45.3258 12.5183 45.9327C12.519 46.0611 12.5309 46.1892 12.5536 46.3156C12.5536 46.3428 12.5726 46.4161 12.5808 46.4596C12.7908 47.38 13.301 48.2044 14.0309 48.8031C13.1239 47.5431 12.6079 46.7393 12.8279 45.4928C12.919 45.014 13.1544 44.5745 13.5024 44.2333C13.8504 43.892 14.2945 43.6654 14.775 43.5837Z" fill="white"/>
<path id="Vector_19" d="M16.3365 49.4576C16.1968 49.3578 16.0861 49.2229 16.0155 49.0664C15.9449 48.91 15.917 48.7376 15.9346 48.5669C15.9604 48.0888 16.0985 47.6235 16.3377 47.2088C16.5769 46.7941 16.9105 46.4416 17.3114 46.1798C17.4506 46.0784 17.6143 46.0159 17.7856 45.9987C17.9569 45.9816 18.1298 46.0103 18.2863 46.0821L20.0569 47.1086C20.2787 47.2368 20.4731 47.4074 20.629 47.6108C20.7849 47.8141 20.8992 48.0461 20.9654 48.2937C21.0316 48.5412 21.0483 48.7993 21.0148 49.0533C20.9812 49.3073 20.898 49.5522 20.7698 49.774C20.6416 49.9958 20.4709 50.1902 20.2676 50.3461C20.0642 50.5019 19.8322 50.6162 19.5847 50.6824C19.3372 50.7486 19.0791 50.7654 18.8251 50.7319C18.5711 50.6983 18.3262 50.615 18.1044 50.4868L16.3365 49.4576Z" fill="#F5F5F5"/>
<path id="Vector_20" d="M13.8924 48.0455C13.4444 47.7865 13.1177 47.3603 12.984 46.8604C12.8503 46.3605 12.9206 45.8281 13.1796 45.3801C13.4385 44.9321 13.8648 44.6053 14.3646 44.4716C14.8645 44.3379 15.397 44.4083 15.845 44.6672L18.289 46.0821C18.1325 46.0103 17.9597 45.9815 17.7883 45.9987C17.617 46.0159 17.4533 46.0784 17.3141 46.1798C16.9132 46.4416 16.5796 46.7941 16.3404 47.2088C16.1012 47.6235 15.9631 48.0888 15.9373 48.5669C15.9197 48.7376 15.9476 48.91 16.0182 49.0664C16.0888 49.2229 16.1996 49.3578 16.3392 49.4576L13.8924 48.0455Z" fill="#90CAF9"/>
<path id="Vector_21" opacity="0.4" d="M14.3405 45.1832C14.2913 45.2679 14.2593 45.3614 14.2463 45.4585C14.2333 45.5555 14.2396 45.6542 14.2649 45.7488C14.2901 45.8434 14.3338 45.9321 14.3933 46.0098C14.4529 46.0875 14.5272 46.1527 14.612 46.2016L17.5612 47.9151C17.8091 47.5042 17.9483 47.0369 17.9658 46.5573C17.9658 46.5112 17.9658 46.465 17.9658 46.4215L15.3643 44.9116C15.2794 44.8616 15.1854 44.8289 15.0878 44.8155C14.9902 44.8021 14.8908 44.8082 14.7956 44.8334C14.7004 44.8587 14.6111 44.9026 14.5329 44.9627C14.4548 45.0227 14.3894 45.0977 14.3405 45.1832Z" fill="white"/>
<path id="Vector_22" d="M16.3365 49.4576C16.1968 49.3578 16.0861 49.2229 16.0155 49.0664C15.9449 48.91 15.917 48.7376 15.9346 48.5669C15.9604 48.0888 16.0985 47.6235 16.3377 47.2088C16.5769 46.7941 16.9105 46.4416 17.3114 46.1798C17.4506 46.0784 17.6143 46.0159 17.7856 45.9987C17.9569 45.9816 18.1298 46.0103 18.2863 46.0821L20.0569 47.1086C20.2787 47.2368 20.4731 47.4074 20.629 47.6108C20.7849 47.8141 20.8992 48.0461 20.9654 48.2937C21.0316 48.5412 21.0483 48.7993 21.0148 49.0533C20.9812 49.3073 20.898 49.5522 20.7698 49.774C20.6416 49.9958 20.4709 50.1902 20.2676 50.3461C20.0642 50.5019 19.8322 50.6162 19.5847 50.6824C19.3372 50.7486 19.0791 50.7654 18.8251 50.7319C18.5711 50.6983 18.3262 50.615 18.1044 50.4868L16.3365 49.4576Z" fill="#F5F5F5"/>
<path id="Vector_23" opacity="0.1" d="M17.3169 46.1799C16.916 46.4416 16.5824 46.7941 16.3432 47.2088C16.104 47.6236 15.9659 48.0888 15.9401 48.5669C15.9225 48.7376 15.9504 48.91 16.021 49.0664C16.0916 49.2229 16.2023 49.3579 16.342 49.4576L16.2035 49.3789L16.0976 49.3164C15.9575 49.217 15.8464 49.0821 15.7758 48.9256C15.7052 48.769 15.6775 48.5965 15.6957 48.4257C15.7215 47.9476 15.8596 47.4824 16.0988 47.0676C16.338 46.6529 16.6716 46.3004 17.0725 46.0386C17.2117 45.9372 17.3753 45.8747 17.5467 45.8575C17.718 45.8404 17.8909 45.8691 18.0474 45.9409L18.2918 46.0821C18.1353 46.0103 17.9624 45.9816 17.7911 45.9988C17.6198 46.0159 17.4561 46.0785 17.3169 46.1799Z" fill="black"/>
<path id="Vector_24" d="M21.0237 48.5913C21.064 48.9499 21.004 49.3127 20.8502 49.6391C20.6964 49.9655 20.4549 50.2428 20.1527 50.44C19.8504 50.6371 19.4994 50.7464 19.1386 50.7557C18.7779 50.7649 18.4217 50.6737 18.1098 50.4923L16.3365 49.4576C16.1968 49.3578 16.0861 49.2229 16.0155 49.0664C15.9449 48.91 15.917 48.7376 15.9346 48.5669C15.9364 48.3649 15.9647 48.1641 16.0188 47.9695C17.0534 48.5642 18.3162 49.2974 18.9761 49.6803C19.9537 50.2424 21.0128 49.2295 21.0237 48.5913Z" fill="#E0E0E0"/>
<path id="Vector_25" d="M20.3502 48.6728C20.3012 48.7576 20.2361 48.8319 20.1584 48.8915C20.0807 48.9511 19.992 48.9947 19.8974 49.02C19.8028 49.0452 19.7041 49.0515 19.607 49.0385C19.51 49.0255 19.4165 48.9935 19.3318 48.9444L16.3446 47.2145C16.577 46.7943 16.9125 46.4401 17.3195 46.1853C17.3603 46.1608 17.401 46.1418 17.439 46.1228L20.0813 47.6517C20.2518 47.752 20.3757 47.9156 20.4261 48.1069C20.4764 48.2981 20.4491 48.5016 20.3502 48.6728Z" fill="white"/>
<path id="Vector_26" opacity="0.1" d="M13.3249 45.1778C13.3469 45.1476 13.3704 45.1186 13.3955 45.0909C13.4112 45.0697 13.4284 45.0498 13.447 45.0311L13.5095 44.966C13.5308 44.9438 13.5535 44.9229 13.5774 44.9035C13.5902 44.8906 13.6049 44.8796 13.6209 44.8709C13.7235 44.7821 13.8355 44.7047 13.9549 44.6401C13.9956 44.6184 14.0391 44.5966 14.0852 44.5776C13.5421 44.9062 13.1918 46.3292 14.164 46.8886C14.4953 47.0814 14.995 47.3775 16.0215 47.9749C15.9675 48.1695 15.9392 48.3704 15.9373 48.5723C15.9197 48.7431 15.9476 48.9154 16.0182 49.0719C16.0888 49.2283 16.1996 49.3633 16.3392 49.4631L13.8951 48.0509C13.4473 47.7915 13.1209 47.3649 12.9874 46.8648C12.854 46.3648 12.9246 45.8322 13.1836 45.3842C13.2137 45.3319 13.2463 45.2811 13.2814 45.2321L13.3249 45.1778Z" fill="black"/>
<g id="Vector_27" style="mix-blend-mode:hard-light" opacity="0.7">
<path d="M9.00429 31.7272C9.00446 31.598 8.99356 31.469 8.9717 31.3416C8.9717 31.3144 8.95269 31.2167 8.94726 31.2004C8.82846 30.6679 8.6059 30.1641 8.29231 29.7177C7.97872 29.2713 7.58024 28.8911 7.11963 28.5988L3.82285 26.6978H3.79298C3.43747 26.4702 3.02724 26.3424 2.60534 26.328C2.18344 26.3135 1.76543 26.4129 1.39517 26.6157C1.02491 26.8184 0.716049 27.1171 0.501012 27.4804C0.285974 27.8437 0.17269 28.2581 0.173035 28.6803C0.173768 28.8087 0.185572 28.9368 0.208332 29.0632C0.214419 29.1117 0.22349 29.1597 0.23549 29.2071C0.473986 30.2808 1.12823 31.2163 2.05497 31.8087L5.35447 33.7096H5.38163C5.73717 33.938 6.14768 34.0663 6.56999 34.0812C6.9923 34.096 7.41081 33.9968 7.7815 33.7939C8.1522 33.5911 8.46138 33.2921 8.67656 32.9284C8.89173 32.5647 9.00494 32.1498 9.00429 31.7272Z" fill="#FAFAFA"/>
</g>
<path id="Vector_28" d="M1.92456 27.6484C1.92456 28.7726 2.76912 30.1739 3.80921 30.774L7.106 32.675C8.14609 33.2751 8.99065 32.8488 8.99065 31.7245C8.99065 30.6002 8.14609 29.199 7.106 28.5961L3.80921 26.6952C2.75826 26.095 1.92456 26.5214 1.92456 27.6484Z" fill="#E0E0E0"/>
<path id="Vector_29" d="M2.41606 26.315C1.80965 26.3402 1.2364 26.5986 0.815929 27.0363C0.395455 27.4739 0.160239 28.0571 0.159363 28.664C0.160095 28.7924 0.171908 28.9205 0.194667 29.0469C0.200754 29.0954 0.209825 29.1435 0.221825 29.1908C0.431854 30.1113 0.942003 30.9357 1.67197 31.5344C0.762236 30.2744 0.248983 29.4705 0.468949 28.2241C0.56009 27.7453 0.795457 27.3058 1.14348 26.9645C1.49151 26.6233 1.93555 26.3967 2.41606 26.315Z" fill="white"/>
<path id="Vector_30" d="M3.98306 32.1889C3.84084 32.0898 3.72778 31.9544 3.65566 31.7968C3.58354 31.6392 3.55499 31.4651 3.57299 31.2927C3.59881 30.8147 3.73692 30.3494 3.97614 29.9347C4.21535 29.5199 4.54892 29.1674 4.94982 28.9057C5.08913 28.8045 5.25295 28.7423 5.42435 28.7256C5.59574 28.7088 5.76849 28.7382 5.92473 28.8106L7.69533 29.8344C7.91768 29.9625 8.11264 30.133 8.26908 30.3364C8.42551 30.5398 8.54036 30.772 8.60706 31.0197C8.67376 31.2675 8.691 31.526 8.65781 31.7804C8.62462 32.0348 8.54165 32.2802 8.41362 32.5025C8.28559 32.7249 8.11502 32.9199 7.91165 33.0763C7.70827 33.2327 7.47608 33.3476 7.22832 33.4143C6.98056 33.481 6.72209 33.4982 6.46767 33.465C6.21325 33.4318 5.96786 33.3489 5.7455 33.2208L3.98306 32.1889Z" fill="#F5F5F5"/>
<path id="Vector_31" d="M1.5417 30.7767C1.31988 30.6485 1.12549 30.4779 0.969618 30.2746C0.813746 30.0712 0.699449 29.8392 0.633254 29.5917C0.56706 29.3442 0.550268 29.0861 0.583828 28.8321C0.617388 28.5781 0.700641 28.3332 0.828847 28.1114C0.957053 27.8895 1.12769 27.6951 1.33103 27.5393C1.53436 27.3834 1.76641 27.2691 2.01391 27.2029C2.26142 27.1367 2.51954 27.1199 2.77353 27.1535C3.02753 27.187 3.27243 27.2703 3.49425 27.3985L5.93832 28.8161C5.78208 28.7436 5.60933 28.7143 5.43794 28.731C5.26654 28.7477 5.10272 28.8099 4.96341 28.9111C4.5607 29.1708 4.22493 29.5218 3.98334 29.9356C3.74175 30.3494 3.60116 30.8144 3.573 31.2927C3.55512 31.4635 3.58291 31.6359 3.65352 31.7924C3.72414 31.9489 3.83505 32.0839 3.97492 32.1834L1.5417 30.7767Z" fill="#90CAF9"/>
<path id="Vector_32" opacity="0.4" d="M1.98163 27.9145C1.88289 28.086 1.85602 28.2897 1.90689 28.481C1.95777 28.6723 2.08227 28.8357 2.25319 28.9356L5.20237 30.6464C5.45065 30.2356 5.58992 29.7683 5.607 29.2886C5.607 29.2424 5.607 29.199 5.607 29.1555L3.00542 27.6456C2.9207 27.5955 2.82687 27.5626 2.72936 27.549C2.63185 27.5354 2.5326 27.5412 2.43738 27.5662C2.34215 27.5912 2.25283 27.6349 2.1746 27.6947C2.09636 27.7545 2.03078 27.8292 1.98163 27.9145Z" fill="white"/>
<path id="Vector_33" d="M3.98306 32.1889C3.84084 32.0898 3.72778 31.9544 3.65566 31.7968C3.58354 31.6392 3.55499 31.4651 3.57299 31.2927C3.59881 30.8147 3.73692 30.3494 3.97614 29.9347C4.21535 29.5199 4.54892 29.1674 4.94982 28.9057C5.08913 28.8045 5.25295 28.7423 5.42435 28.7256C5.59574 28.7088 5.76849 28.7382 5.92473 28.8106L7.69533 29.8344C7.91768 29.9625 8.11264 30.133 8.26908 30.3364C8.42551 30.5398 8.54036 30.772 8.60706 31.0197C8.67376 31.2675 8.691 31.526 8.65781 31.7804C8.62462 32.0348 8.54165 32.2802 8.41362 32.5025C8.28559 32.7249 8.11502 32.9199 7.91165 33.0763C7.70827 33.2327 7.47608 33.3476 7.22832 33.4143C6.98056 33.481 6.72209 33.4982 6.46767 33.465C6.21325 33.4318 5.96786 33.3489 5.7455 33.2208L3.98306 32.1889Z" fill="#F5F5F5"/>
<path id="Vector_34" opacity="0.1" d="M4.95799 28.9111C4.5563 29.1714 4.22157 29.5227 3.98095 29.9364C3.74033 30.3502 3.60057 30.8149 3.57301 31.2927C3.55513 31.4635 3.58292 31.6359 3.65354 31.7924C3.72415 31.9489 3.83507 32.0839 3.97493 32.1835L3.84458 32.1074L3.73866 32.045C3.59838 31.9458 3.48715 31.8109 3.41649 31.6543C3.34583 31.4977 3.3183 31.325 3.33676 31.1542C3.36257 30.6762 3.50069 30.2109 3.7399 29.7962C3.97911 29.3814 4.31269 29.0289 4.71359 28.7672C4.85289 28.666 5.01671 28.6038 5.18811 28.5871C5.35951 28.5703 5.53226 28.5997 5.6885 28.6721L5.9329 28.8134C5.77643 28.7413 5.60354 28.7124 5.43214 28.7296C5.26074 28.7468 5.09705 28.8094 4.95799 28.9111Z" fill="black"/>
<path id="Vector_35" d="M8.66477 31.3226C8.70515 31.6812 8.64508 32.0439 8.49128 32.3704C8.33747 32.6968 8.09598 32.9741 7.79376 33.1712C7.49154 33.3684 7.14048 33.4777 6.77975 33.4869C6.41902 33.4962 6.06281 33.405 5.75089 33.2236L3.98302 32.1916C3.84037 32.0923 3.72703 31.9565 3.65489 31.7983C3.58275 31.6402 3.55445 31.4656 3.57295 31.2927C3.575 31.0908 3.6033 30.89 3.65714 30.6953L6.61447 32.4062C7.59482 32.9737 8.65391 31.9635 8.66477 31.3226Z" fill="#E0E0E0"/>
<path id="Vector_36" d="M7.9914 31.3986C7.89208 31.5694 7.72916 31.6938 7.5383 31.7447C7.34744 31.7956 7.14419 31.7688 6.97304 31.6702L3.98584 29.9403C4.21735 29.5187 4.55299 29.1635 4.96075 28.9084L5.08024 28.8459L7.72256 30.3748C7.89376 30.4751 8.0182 30.6392 8.0686 30.8312C8.119 31.0231 8.09124 31.2272 7.9914 31.3986Z" fill="white"/>
<path id="Vector_37" opacity="0.1" d="M0.965971 27.909C0.987997 27.8789 1.01157 27.8499 1.03658 27.8221C1.05231 27.801 1.06955 27.781 1.08818 27.7624C1.10762 27.7402 1.12848 27.7194 1.15063 27.6999L1.21581 27.6347L1.25383 27.6049C1.35649 27.5161 1.46849 27.4387 1.58785 27.374L1.72092 27.3116C1.17779 27.6402 0.827475 29.0632 1.79967 29.6253C2.13098 29.8154 2.62794 30.1114 3.65717 30.7116C3.60471 30.9009 3.57643 31.0962 3.57298 31.2927C3.5551 31.4635 3.58289 31.6359 3.6535 31.7924C3.72412 31.9489 3.83504 32.0839 3.9749 32.1834L1.53083 30.7713C1.0833 30.5123 0.756771 30.0864 0.622878 29.587C0.488984 29.0875 0.55866 28.5554 0.816614 28.1073C0.849202 28.053 0.881788 28.0041 0.917091 27.9552C0.931914 27.9383 0.948277 27.9229 0.965971 27.909Z" fill="black"/>
<g id="Vector_38" style="mix-blend-mode:hard-light" opacity="0.7">
<path d="M21.3496 38.7987C21.3493 38.6696 21.3393 38.5407 21.3197 38.4131C21.3197 38.386 21.298 38.2909 21.2925 38.2719C21.1742 37.74 20.952 37.2367 20.6389 36.7907C20.3258 36.3448 19.9277 35.965 19.4676 35.673L16.1681 33.7721L16.1383 33.7585C15.7824 33.5317 15.3721 33.4047 14.9503 33.3908C14.5285 33.3769 14.1107 33.4766 13.7407 33.6796C13.3706 33.8825 13.0619 34.1811 12.8469 34.5443C12.6319 34.9074 12.5184 35.3216 12.5183 35.7437C12.519 35.8712 12.5308 35.9984 12.5536 36.1238C12.5536 36.1537 12.5726 36.227 12.5808 36.2678C12.8187 37.3417 13.4731 38.2774 14.4002 38.8693L17.6997 40.7703L17.7269 40.7839C18.0824 41.0122 18.493 41.1406 18.9153 41.1554C19.3376 41.1703 19.7561 41.071 20.1268 40.8682C20.4975 40.6653 20.8067 40.3663 21.0218 40.0027C21.237 39.639 21.3502 39.224 21.3496 38.8015V38.7987Z" fill="#FAFAFA"/>
</g>
<path id="Vector_39" d="M14.2861 34.7199C14.2861 35.8468 15.128 37.2454 16.1681 37.8456L19.4676 39.7465C20.5049 40.3467 21.3495 39.9203 21.3495 38.796C21.3495 37.6718 20.5049 36.2705 19.4676 35.6703L16.1681 33.7694C15.128 33.1665 14.2861 33.5929 14.2861 34.7199Z" fill="#E0E0E0"/>
<path id="Vector_40" d="M14.775 33.3892C14.1684 33.4137 13.5947 33.6719 13.1741 34.1097C12.7535 34.5476 12.5185 35.1311 12.5183 35.7382C12.519 35.8657 12.5308 35.9929 12.5536 36.1184C12.5536 36.1483 12.5726 36.2216 12.5808 36.2623C12.79 37.1831 13.3003 38.0078 14.0309 38.6059C13.1239 37.3459 12.6079 36.5448 12.8279 35.2956C12.9188 34.8169 13.1542 34.3776 13.5023 34.0368C13.8504 33.696 14.2946 33.47 14.775 33.3892Z" fill="white"/>
<path id="Vector_41" d="M16.3365 39.2631C16.1966 39.1629 16.0857 39.0275 16.0151 38.8705C15.9446 38.7136 15.9167 38.5408 15.9346 38.3697C15.9606 37.8916 16.0988 37.4265 16.338 37.0118C16.5772 36.5971 16.9106 36.2445 17.3114 35.9826C17.4507 35.8814 17.6145 35.8192 17.7859 35.8025C17.9573 35.7858 18.1301 35.8151 18.2863 35.8876L20.0569 36.9114C20.2844 37.0367 20.4847 37.2061 20.6459 37.4098C20.8072 37.6134 20.9261 37.8472 20.9959 38.0974C21.0656 38.3476 21.0848 38.6093 21.0522 38.867C21.0195 39.1247 20.9358 39.3733 20.8059 39.5982C20.676 39.8232 20.5025 40.0199 20.2956 40.177C20.0887 40.334 19.8525 40.4482 19.601 40.5129C19.3494 40.5775 19.0874 40.5913 18.8304 40.5534C18.5734 40.5156 18.3266 40.4268 18.1044 40.2923L16.3365 39.2631Z" fill="#F5F5F5"/>
<path id="Vector_42" d="M13.8924 37.8483C13.4444 37.5894 13.1177 37.1631 12.984 36.6632C12.8503 36.1634 12.9206 35.6309 13.1796 35.1829C13.4385 34.7349 13.8648 34.4081 14.3646 34.2744C14.8645 34.1407 15.397 34.2111 15.845 34.47L18.289 35.8876C18.1328 35.8152 17.96 35.7858 17.7886 35.8025C17.6173 35.8192 17.4534 35.8814 17.3141 35.9826C16.9134 36.2445 16.5799 36.5971 16.3407 37.0118C16.1015 37.4265 15.9633 37.8917 15.9373 38.3697C15.9195 38.5408 15.9473 38.7136 16.0179 38.8706C16.0885 39.0275 16.1993 39.1629 16.3392 39.2631L13.8924 37.8483Z" fill="#90CAF9"/>
<path id="Vector_43" opacity="0.4" d="M14.3405 34.986C14.2417 35.1576 14.2148 35.3612 14.2657 35.5525C14.3166 35.7438 14.4411 35.9072 14.612 36.0071L17.5612 37.7179C17.8095 37.3071 17.9488 36.8398 17.9658 36.3601C17.9658 36.3139 17.9658 36.2705 17.9658 36.227L15.3643 34.7171C15.2794 34.6673 15.1856 34.6348 15.0882 34.6214C14.9907 34.6079 14.8916 34.6139 14.7965 34.6389C14.7014 34.6638 14.6121 34.7074 14.5338 34.7669C14.4556 34.8265 14.3899 34.9009 14.3405 34.986Z" fill="white"/>
<path id="Vector_44" d="M16.3365 39.2631C16.1966 39.1629 16.0857 39.0275 16.0151 38.8705C15.9446 38.7136 15.9167 38.5408 15.9346 38.3697C15.9606 37.8916 16.0988 37.4265 16.338 37.0118C16.5772 36.5971 16.9106 36.2445 17.3114 35.9826C17.4507 35.8814 17.6145 35.8192 17.7859 35.8025C17.9573 35.7858 18.1301 35.8151 18.2863 35.8876L20.0569 36.9114C20.2844 37.0367 20.4847 37.2061 20.6459 37.4098C20.8072 37.6134 20.9261 37.8472 20.9959 38.0974C21.0656 38.3476 21.0848 38.6093 21.0522 38.867C21.0195 39.1247 20.9358 39.3733 20.8059 39.5982C20.676 39.8232 20.5025 40.0199 20.2956 40.177C20.0887 40.334 19.8525 40.4482 19.601 40.5129C19.3494 40.5775 19.0874 40.5913 18.8304 40.5534C18.5734 40.5156 18.3266 40.4268 18.1044 40.2923L16.3365 39.2631Z" fill="#F5F5F5"/>
<path id="Vector_45" opacity="0.1" d="M17.3168 35.9826C16.916 36.2445 16.5826 36.5971 16.3434 37.0118C16.1042 37.4265 15.966 37.8916 15.94 38.3697C15.9222 38.5408 15.9499 38.7136 16.0205 38.8705C16.0911 39.0275 16.202 39.1629 16.3419 39.2631L16.2034 39.1816L16.0975 39.1192C15.957 39.0202 15.8456 38.8854 15.7749 38.7287C15.7042 38.572 15.6768 38.3993 15.6956 38.2285C15.7216 37.7504 15.8598 37.2852 16.099 36.8706C16.3382 36.4559 16.6716 36.1033 17.0724 35.8414C17.2117 35.7402 17.3755 35.678 17.5469 35.6613C17.7183 35.6446 17.8911 35.6739 18.0473 35.7464L18.2917 35.8876C18.1355 35.8152 17.9627 35.7858 17.7913 35.8025C17.6199 35.8192 17.4561 35.8814 17.3168 35.9826Z" fill="black"/>
<path id="Vector_46" d="M21.0237 38.3968C21.0694 38.8069 20.9828 39.2208 20.7765 39.5781C20.5175 40.0264 20.0911 40.3534 19.591 40.4874C19.091 40.6213 18.5582 40.5512 18.1098 40.2924L16.3365 39.2631C16.1966 39.1629 16.0857 39.0275 16.0151 38.8706C15.9446 38.7136 15.9167 38.5408 15.9346 38.3697C15.9366 38.1677 15.9649 37.9669 16.0187 37.7722L18.9761 39.4831C19.9537 40.0452 21.0128 39.035 21.0237 38.3968Z" fill="#E0E0E0"/>
<path id="Vector_47" d="M20.3502 38.4702C20.3012 38.555 20.2361 38.6293 20.1584 38.6889C20.0807 38.7484 19.992 38.7921 19.8974 38.8173C19.8028 38.8426 19.7041 38.8489 19.607 38.8359C19.51 38.8229 19.4165 38.7909 19.3318 38.7417L16.3446 37.0119C16.5769 36.5908 16.9124 36.2358 17.3195 35.9799L17.439 35.9202L20.0813 37.4491C20.1663 37.4982 20.2407 37.5637 20.3002 37.6417C20.3597 37.7197 20.4032 37.8088 20.4282 37.9037C20.4532 37.9986 20.4592 38.0975 20.4458 38.1947C20.4324 38.2919 20.3999 38.3856 20.3502 38.4702Z" fill="white"/>
<path id="Vector_48" opacity="0.1" d="M13.3249 34.9806C13.3469 34.9504 13.3705 34.9214 13.3955 34.8937C13.4118 34.8746 13.4281 34.8529 13.4471 34.8339L13.5096 34.7715L13.5775 34.7063L13.6128 34.6764C13.7155 34.5885 13.8275 34.512 13.9468 34.4483C13.9885 34.4233 14.0321 34.4016 14.0771 34.3831C13.534 34.7117 13.1837 36.1347 14.1559 36.6968C14.4872 36.8896 14.9869 37.1857 16.0134 37.7831C15.9595 37.9777 15.9312 38.1786 15.9292 38.3805C15.9114 38.5517 15.9392 38.7245 16.0098 38.8814C16.0804 39.0383 16.1912 39.1738 16.3311 39.274L13.887 37.8591C13.6651 37.7312 13.4707 37.5607 13.3147 37.3575C13.1588 37.1542 13.0446 36.9222 12.9785 36.6748C12.9124 36.4273 12.8958 36.1692 12.9296 35.9153C12.9634 35.6614 13.047 35.4166 13.1755 35.1951C13.2056 35.1428 13.2382 35.092 13.2733 35.043L13.3249 34.9806Z" fill="black"/>
<g id="Vector_49" style="mix-blend-mode:hard-light" opacity="0.7">
<path d="M9.00429 21.53C9.00446 21.4017 8.99356 21.2736 8.9717 21.1471C8.9717 21.1172 8.95269 21.0222 8.94726 21.0032C8.7064 19.929 8.04908 18.9943 7.11963 18.4043L3.82285 16.5034L3.79298 16.4898C3.43747 16.2621 3.02724 16.1344 2.60534 16.1199C2.18344 16.1054 1.76543 16.2048 1.39517 16.4076C1.02491 16.6104 0.716049 16.909 0.501012 17.2723C0.285974 17.6356 0.17269 18.05 0.173035 18.4722C0.173768 18.6006 0.185572 18.7287 0.208332 18.8551C0.214907 18.9035 0.223973 18.9515 0.23549 18.999C0.474088 20.072 1.1284 21.0066 2.05497 21.5979L5.35447 23.4988H5.38163C5.73717 23.7272 6.14768 23.8555 6.56999 23.8704C6.9923 23.8852 7.41081 23.786 7.7815 23.5831C8.1522 23.3803 8.46138 23.0813 8.67656 22.7176C8.89173 22.3539 9.00494 21.939 9.00429 21.5164V21.53Z" fill="#FAFAFA"/>
</g>
<path id="Vector_50" d="M1.92456 17.443C1.92456 18.57 2.76912 19.9685 3.80921 20.5687L7.106 22.4696C8.14609 23.0698 8.99065 22.6434 8.99065 21.5164C8.99065 20.3894 8.14609 18.9909 7.106 18.3907L3.80921 16.4898C2.75826 15.9005 1.92456 16.3268 1.92456 17.443Z" fill="#E0E0E0"/>
<path id="Vector_51" d="M2.41606 16.1205C1.80943 16.145 1.23579 16.4032 0.815175 16.841C0.394562 17.2788 0.159568 17.8624 0.159363 18.4695C0.160095 18.5979 0.171908 18.726 0.194667 18.8524C0.201243 18.9008 0.210309 18.9488 0.221825 18.9963C0.431854 19.9167 0.942003 20.7412 1.67197 21.3399C0.762236 20.0799 0.248983 19.276 0.468949 18.0268C0.559865 17.5482 0.795218 17.1089 1.14333 16.7681C1.49145 16.4272 1.93561 16.2012 2.41606 16.1205Z" fill="white"/>
<path id="Vector_52" d="M3.98308 21.9944C3.8432 21.8942 3.73234 21.7587 3.66174 21.6018C3.59115 21.4449 3.56335 21.2721 3.58117 21.1009C3.60697 20.6232 3.7451 20.1583 3.98433 19.7441C4.22357 19.3298 4.55715 18.9777 4.958 18.7166C5.09717 18.6152 5.26084 18.5527 5.43219 18.5355C5.60353 18.5183 5.77637 18.5471 5.93291 18.6188L7.7035 19.6453C7.92532 19.7739 8.11965 19.9449 8.27539 20.1486C8.43112 20.3522 8.54522 20.5846 8.61116 20.8323C8.6771 21.0801 8.6936 21.3384 8.65971 21.5925C8.62582 21.8467 8.54221 22.0916 8.41365 22.3135C8.28508 22.5353 8.11408 22.7296 7.91042 22.8853C7.70676 23.0411 7.47441 23.1552 7.22666 23.2211C6.9789 23.2871 6.72058 23.3036 6.46645 23.2697C6.21231 23.2358 5.96735 23.1522 5.74553 23.0236L3.98308 21.9944Z" fill="#F5F5F5"/>
<path id="Vector_53" d="M1.54175 20.5823C1.10457 20.3178 0.788496 19.8924 0.661343 19.3976C0.534191 18.9027 0.606094 18.3777 0.861627 17.9352C1.11716 17.4927 1.53595 17.168 2.02815 17.0308C2.52034 16.8936 3.0467 16.9548 3.49429 17.2013L5.93836 18.6189C5.78182 18.5471 5.609 18.5183 5.43765 18.5355C5.26631 18.5527 5.10263 18.6152 4.96345 18.7166C4.56261 18.9778 4.22902 19.3298 3.98979 19.7441C3.75056 20.1584 3.61243 20.6232 3.58662 21.101C3.56881 21.2721 3.59662 21.4449 3.66721 21.6018C3.7378 21.7587 3.84866 21.8942 3.98854 21.9944L1.54175 20.5823Z" fill="#90CAF9"/>
<path id="Vector_54" opacity="0.4" d="M1.98157 17.7145C1.88295 17.8857 1.85616 18.0889 1.90705 18.2798C1.95795 18.4707 2.08239 18.6336 2.25313 18.7329L5.20231 20.4438C5.45092 20.0331 5.59022 19.5657 5.60694 19.0859C5.60694 19.0371 5.60694 18.9936 5.60694 18.9502L2.99993 17.443C2.91527 17.3938 2.82174 17.3618 2.72469 17.3488C2.62764 17.3358 2.52898 17.3422 2.43438 17.3674C2.33977 17.3926 2.25107 17.4363 2.17337 17.4958C2.09567 17.5554 2.03049 17.6297 1.98157 17.7145Z" fill="white"/>
<path id="Vector_55" d="M3.98308 21.9944C3.8432 21.8942 3.73234 21.7587 3.66174 21.6018C3.59115 21.4449 3.56335 21.2721 3.58117 21.1009C3.60697 20.6232 3.7451 20.1583 3.98433 19.7441C4.22357 19.3298 4.55715 18.9777 4.958 18.7166C5.09717 18.6152 5.26084 18.5527 5.43219 18.5355C5.60353 18.5183 5.77637 18.5471 5.93291 18.6188L7.7035 19.6453C7.92532 19.7739 8.11965 19.9449 8.27539 20.1486C8.43112 20.3522 8.54522 20.5846 8.61116 20.8323C8.6771 21.0801 8.6936 21.3384 8.65971 21.5925C8.62582 21.8467 8.54221 22.0916 8.41365 22.3135C8.28508 22.5353 8.11408 22.7296 7.91042 22.8853C7.70676 23.0411 7.47441 23.1552 7.22666 23.2211C6.9789 23.2871 6.72058 23.3036 6.46645 23.2697C6.21231 23.2358 5.96735 23.1522 5.74553 23.0236L3.98308 21.9944Z" fill="#F5F5F5"/>
<path id="Vector_56" opacity="0.1" d="M4.95795 18.7166C4.55711 18.9777 4.22352 19.3298 3.98429 19.744C3.74506 20.1583 3.60693 20.6232 3.58112 21.1009C3.56331 21.2721 3.59111 21.4449 3.6617 21.6018C3.73229 21.7587 3.84316 21.8942 3.98304 21.9944L3.84454 21.9129L3.73863 21.8532C3.59833 21.7533 3.48715 21.618 3.41652 21.4609C3.34588 21.3039 3.31834 21.1309 3.33672 20.9597C3.36252 20.482 3.50065 20.0171 3.73989 19.6028C3.97912 19.1885 4.31271 18.8365 4.71355 18.5754C4.85272 18.474 5.01639 18.4115 5.18774 18.3943C5.35908 18.3771 5.53192 18.4059 5.68846 18.4776L5.93287 18.6188C5.77632 18.5471 5.60349 18.5183 5.43215 18.5355C5.2608 18.5527 5.09713 18.6152 4.95795 18.7166Z" fill="black"/>
<path id="Vector_57" d="M8.66484 21.1281C8.70521 21.4867 8.64514 21.8494 8.49134 22.1759C8.33754 22.5023 8.09605 22.7796 7.79383 22.9767C7.4916 23.1739 7.14054 23.2832 6.77981 23.2924C6.41908 23.3017 6.06288 23.2105 5.75096 23.0291L3.98308 21.9998C3.84321 21.8996 3.73234 21.7642 3.66174 21.6073C3.59115 21.4503 3.56335 21.2775 3.58117 21.1064C3.58305 20.9053 3.61135 20.7054 3.66535 20.5117L6.62268 22.2225C7.59488 22.7765 8.65398 21.7663 8.66484 21.1281Z" fill="#E0E0E0"/>
<path id="Vector_58" d="M7.99141 21.2014C7.94248 21.2863 7.8773 21.3606 7.7996 21.4202C7.7219 21.4797 7.6332 21.5234 7.53859 21.5486C7.44399 21.5738 7.34533 21.5801 7.24828 21.5672C7.15124 21.5542 7.0577 21.5222 6.97304 21.473L3.98584 19.7431C4.21822 19.3229 4.55371 18.9687 4.96075 18.7139C4.99944 18.691 5.03933 18.6701 5.08024 18.6515L7.72256 20.1804C7.89358 20.2801 8.01797 20.4438 8.06839 20.6352C8.1188 20.8267 8.09111 21.0304 7.99141 21.2014Z" fill="white"/>
<path id="Vector_59" opacity="0.1" d="M0.966029 17.7146L1.03664 17.6276L1.08824 17.5679L1.15069 17.5054L1.21587 17.4403L1.25389 17.4104C1.35729 17.3234 1.4692 17.2469 1.58791 17.1823L1.72098 17.1171C1.17785 17.4484 0.827533 18.8687 1.79973 19.4308C2.13104 19.6236 2.628 19.9196 3.65723 20.5171C3.60323 20.7108 3.57492 20.9107 3.57304 21.1118C3.55523 21.283 3.58303 21.4558 3.65362 21.6127C3.72421 21.7696 3.83508 21.9051 3.97496 22.0053L1.53089 20.5931C1.08317 20.3336 0.756596 19.9072 0.62272 19.4073C0.488845 18.9075 0.55859 18.3749 0.816672 17.9264C0.84926 17.8748 0.881846 17.8232 0.917149 17.7743L0.966029 17.7146Z" fill="black"/>
<g id="Vector_60" style="mix-blend-mode:hard-light" opacity="0.7">
<path d="M21.3496 28.6015C21.3493 28.4733 21.3393 28.3453 21.3197 28.2186C21.3197 28.1887 21.298 28.0937 21.2925 28.0747C21.0529 27.0007 20.3965 26.0659 19.4676 25.4758L16.1681 23.5749H16.1383C15.7827 23.3472 15.3725 23.2195 14.9506 23.205C14.5287 23.1905 14.1107 23.2899 13.7404 23.4927C13.3702 23.6955 13.0613 23.9941 12.8463 24.3574C12.6313 24.7207 12.518 25.1351 12.5183 25.5573C12.519 25.6857 12.5309 25.8138 12.5536 25.9402C12.5536 25.9674 12.5726 26.0407 12.5808 26.0841C12.8188 27.1573 13.4733 28.0921 14.4002 28.683L17.6997 30.5839H17.7269C18.0825 30.8123 18.493 30.9406 18.9153 30.9555C19.3376 30.9703 19.7561 30.8711 20.1268 30.6682C20.4975 30.4654 20.8067 30.1664 21.0218 29.8027C21.237 29.439 21.3502 29.0241 21.3496 28.6015Z" fill="#FAFAFA"/>
</g>
<path id="Vector_61" d="M14.2861 24.5254C14.2861 25.6497 15.128 27.0509 16.1681 27.6511L19.4676 29.552C20.5049 30.1522 21.3495 29.7258 21.3495 28.5988C21.3495 27.4718 20.5049 26.0733 19.4676 25.4731L16.1681 23.5722C15.128 22.972 14.2861 23.3984 14.2861 24.5254Z" fill="#E0E0E0"/>
<path id="Vector_62" d="M14.775 23.192C14.1686 23.2172 13.5954 23.4756 13.1749 23.9133C12.7544 24.3509 12.5192 24.9341 12.5183 25.541C12.519 25.6694 12.5309 25.7975 12.5536 25.9239C12.5536 25.9511 12.5726 26.0244 12.5808 26.0678C12.7908 26.9883 13.301 27.8127 14.0309 28.4114C13.1239 27.1514 12.6079 26.3476 12.8279 25.1011C12.919 24.6223 13.1544 24.1828 13.5024 23.8416C13.8504 23.5003 14.2945 23.2737 14.775 23.192Z" fill="white"/>
<path id="Vector_63" d="M16.3365 29.0659C16.1968 28.9661 16.0861 28.8312 16.0155 28.6747C15.9449 28.5183 15.917 28.3459 15.9346 28.1752C15.9604 27.6971 16.0985 27.2318 16.3377 26.8171C16.5769 26.4024 16.9105 26.0499 17.3114 25.7881C17.4506 25.6867 17.6143 25.6242 17.7856 25.607C17.9569 25.5898 18.1298 25.6186 18.2863 25.6904L20.0569 26.7169C20.5049 26.9758 20.8317 27.4021 20.9654 27.9019C21.099 28.4018 21.0287 28.9343 20.7698 29.3823C20.5108 29.8303 20.0846 30.157 19.5847 30.2907C19.0848 30.4244 18.5524 30.3541 18.1044 30.0951L16.3365 29.0659Z" fill="#F5F5F5"/>
<path id="Vector_64" d="M13.8924 27.6538C13.4444 27.3948 13.1177 26.9686 12.984 26.4687C12.8503 25.9688 12.9206 25.4364 13.1796 24.9884C13.4385 24.5404 13.8648 24.2136 14.3646 24.0799C14.8645 23.9462 15.397 24.0166 15.845 24.2755L18.289 25.6904C18.1325 25.6186 17.9597 25.5898 17.7883 25.607C17.617 25.6242 17.4533 25.6867 17.3141 25.7881C16.9132 26.0499 16.5796 26.4024 16.3404 26.8171C16.1012 27.2318 15.9631 27.6971 15.9373 28.1752C15.9194 28.3457 15.9469 28.5178 16.017 28.6743C16.0871 28.8307 16.1973 28.9658 16.3365 29.0659L13.8924 27.6538Z" fill="#90CAF9"/>
<path id="Vector_65" opacity="0.4" d="M14.3405 24.7915C14.2417 24.963 14.2148 25.1667 14.2657 25.358C14.3166 25.5493 14.4411 25.7127 14.612 25.8126L17.5612 27.5234C17.809 27.1124 17.9483 26.6452 17.9658 26.1656C17.9658 26.1194 17.9658 26.0733 17.9658 26.0298L15.3643 24.5199C15.2794 24.4699 15.1854 24.4372 15.0878 24.4238C14.9901 24.4103 14.8908 24.4164 14.7956 24.4417C14.7003 24.4669 14.6111 24.5109 14.5329 24.5709C14.4548 24.631 14.3894 24.7059 14.3405 24.7915Z" fill="white"/>
<path id="Vector_66" d="M16.3365 29.0659C16.1968 28.9661 16.0861 28.8312 16.0155 28.6747C15.9449 28.5183 15.917 28.3459 15.9346 28.1752C15.9604 27.6971 16.0985 27.2318 16.3377 26.8171C16.5769 26.4024 16.9105 26.0499 17.3114 25.7881C17.4506 25.6867 17.6143 25.6242 17.7856 25.607C17.9569 25.5898 18.1298 25.6186 18.2863 25.6904L20.0569 26.7169C20.5049 26.9758 20.8317 27.4021 20.9654 27.9019C21.099 28.4018 21.0287 28.9343 20.7698 29.3823C20.5108 29.8303 20.0846 30.157 19.5847 30.2907C19.0848 30.4244 18.5524 30.3541 18.1044 30.0951L16.3365 29.0659Z" fill="#F5F5F5"/>
<path id="Vector_67" opacity="0.1" d="M17.3169 25.7881C16.916 26.0499 16.5824 26.4024 16.3432 26.8171C16.104 27.2318 15.9659 27.6971 15.9401 28.1752C15.9219 28.3454 15.949 28.5174 16.0186 28.6738C16.0882 28.8302 16.1979 28.9655 16.3366 29.0659L16.1981 28.9871L16.0922 28.9247C15.9521 28.8253 15.841 28.6904 15.7704 28.5338C15.6997 28.3773 15.6721 28.2047 15.6902 28.034C15.7161 27.5559 15.8542 27.0906 16.0934 26.6759C16.3326 26.2612 16.6662 25.9086 17.0671 25.6469C17.2062 25.5455 17.3699 25.483 17.5413 25.4658C17.7126 25.4486 17.8854 25.4774 18.042 25.5491L18.2864 25.6904C18.1305 25.6196 17.9588 25.5914 17.7885 25.6086C17.6182 25.6258 17.4555 25.6877 17.3169 25.7881Z" fill="black"/>
<path id="Vector_68" d="M21.0237 28.1996C21.064 28.5582 21.004 28.9209 20.8502 29.2474C20.6964 29.5738 20.4549 29.8511 20.1527 30.0482C19.8504 30.2454 19.4994 30.3547 19.1386 30.3639C18.7779 30.3732 18.4217 30.282 18.1098 30.1006L16.3365 29.0659C16.1968 28.9661 16.0861 28.8312 16.0155 28.6747C15.9449 28.5183 15.917 28.3459 15.9346 28.1752C15.9364 27.9732 15.9647 27.7724 16.0188 27.5777C17.0534 28.1725 18.3162 28.9084 18.9761 29.2886C19.9537 29.8507 21.0128 28.8487 21.0237 28.1996Z" fill="#E0E0E0"/>
<path id="Vector_69" d="M20.3502 28.2756C20.3012 28.3605 20.2361 28.4348 20.1584 28.4944C20.0807 28.5539 19.992 28.5976 19.8974 28.6228C19.8028 28.648 19.7041 28.6543 19.607 28.6414C19.51 28.6284 19.4165 28.5964 19.3318 28.5472L16.3446 26.8173C16.577 26.3971 16.9125 26.0429 17.3195 25.7881C17.3603 25.7637 17.401 25.7447 17.439 25.7257L20.0813 27.2546C20.2518 27.3549 20.3757 27.5185 20.4261 27.7097C20.4764 27.901 20.4491 28.1044 20.3502 28.2756Z" fill="white"/>
<path id="Vector_70" opacity="0.1" d="M13.3248 24.7752C13.3468 24.745 13.3704 24.716 13.3954 24.6883C13.4112 24.6672 13.4284 24.6472 13.447 24.6286L13.5095 24.5634C13.5308 24.5412 13.5535 24.5203 13.5774 24.5009C13.5879 24.4895 13.5997 24.4795 13.6127 24.4711C13.7153 24.3823 13.8273 24.3049 13.9467 24.2402C13.9874 24.2185 14.0309 24.1968 14.077 24.1778C13.5339 24.5064 13.1836 25.9293 14.1558 26.4888C14.4871 26.6816 14.9868 26.9776 16.0133 27.575C15.9593 27.7696 15.931 27.9705 15.9291 28.1725C15.9116 28.3441 15.9401 28.5174 16.0117 28.6744C16.0833 28.8314 16.1954 28.9665 16.3365 29.0659L13.8924 27.6538C13.4448 27.3949 13.1183 26.9687 12.9849 26.4691C12.8515 25.9695 12.922 25.4374 13.1809 24.9897C13.2103 24.9362 13.2429 24.8845 13.2786 24.8349L13.3248 24.7752Z" fill="black"/>
<g id="Vector_71" style="mix-blend-mode:hard-light" opacity="0.7">
<path d="M9.00428 11.3355C9.00445 11.2063 8.99355 11.0773 8.97169 10.9499C8.97169 10.9227 8.95269 10.825 8.94726 10.8087C8.82618 10.2754 8.60096 9.77131 8.28452 9.32533C7.96809 8.87934 7.56668 8.50025 7.10333 8.20982L3.80655 6.30887H3.77668C3.42099 6.08217 3.01094 5.95517 2.58938 5.94116C2.16781 5.92716 1.75023 6.02665 1.38028 6.22925C1.01033 6.43185 0.701595 6.73011 0.486356 7.09285C0.271116 7.45559 0.157282 7.8695 0.156738 8.29129C0.15747 8.4197 0.169275 8.54781 0.192035 8.6742C0.198121 8.72268 0.207192 8.77075 0.219193 8.81812C0.457689 9.89185 1.11194 10.8273 2.03867 11.4197L5.33817 13.3207L5.36533 13.3342C5.72088 13.5626 6.13139 13.6909 6.55369 13.7058C6.976 13.7206 7.3945 13.6214 7.7652 13.4185C8.13589 13.2157 8.44509 12.9167 8.66026 12.553C8.87543 12.1893 8.98865 11.7744 8.98799 11.3518L9.00428 11.3355Z" fill="#FAFAFA"/>
</g>
<path id="Vector_72" d="M1.92456 7.25664C1.92456 8.38363 2.76912 9.78218 3.80921 10.3823L7.10328 12.2833C8.14337 12.8834 8.98794 12.4571 8.98794 11.3328C8.98794 10.2085 8.14337 8.80727 7.10328 8.20712L3.8065 6.30617C2.75826 5.7033 1.92456 6.12965 1.92456 7.25664Z" fill="#E0E0E0"/>
<path id="Vector_73" d="M2.41606 5.92323C1.80965 5.94843 1.2364 6.20683 0.815929 6.64451C0.395455 7.08219 0.160239 7.66533 0.159363 8.27226C0.160095 8.40067 0.171908 8.52878 0.194667 8.65516C0.200754 8.70365 0.209825 8.75172 0.221825 8.79909C0.431078 9.71984 0.941372 10.5445 1.67197 11.1427C0.762236 9.88263 0.248983 9.0788 0.468949 7.83233C0.56009 7.35352 0.795457 6.91403 1.14348 6.5728C1.49151 6.23157 1.93555 6.00492 2.41606 5.92323Z" fill="white"/>
<path id="Vector_74" d="M3.983 11.7972C3.84313 11.6976 3.73222 11.5626 3.6616 11.4061C3.59098 11.2496 3.5632 11.0772 3.58108 10.9064C3.6069 10.4284 3.74501 9.96309 3.98422 9.54837C4.22343 9.13364 4.55701 8.78112 4.95791 8.51939C5.09722 8.41815 5.26104 8.35596 5.43243 8.33925C5.60383 8.32254 5.77658 8.35191 5.93282 8.42434L7.70341 9.44813C7.92932 9.57457 8.12783 9.74466 8.28739 9.94853C8.44695 10.1524 8.56438 10.3859 8.63284 10.6356C8.70131 10.8853 8.71944 11.1461 8.68618 11.4028C8.65293 11.6595 8.56895 11.9071 8.43913 12.1311C8.30932 12.3551 8.13625 12.551 7.93002 12.7075C7.72378 12.8639 7.48849 12.9778 7.23782 13.0425C6.98716 13.1073 6.72613 13.1215 6.46992 13.0843C6.21372 13.0472 5.96745 12.9596 5.74544 12.8264L3.983 11.7972Z" fill="#F5F5F5"/>
<path id="Vector_75" d="M1.5417 10.3823C1.31988 10.2541 1.12549 10.0835 0.969618 9.88014C0.813746 9.67681 0.699449 9.44477 0.633254 9.19726C0.56706 8.94976 0.550268 8.69164 0.583828 8.43764C0.617388 8.18364 0.700641 7.93874 0.828847 7.71692C0.957053 7.49511 1.12769 7.30071 1.33103 7.14484C1.53436 6.98897 1.76641 6.87467 2.01391 6.80848C2.26142 6.74228 2.51954 6.72548 2.77353 6.75904C3.02753 6.7926 3.27243 6.87586 3.49425 7.00407L5.93832 8.42163C5.78208 8.34921 5.60933 8.31984 5.43794 8.33655C5.26654 8.35326 5.10272 8.41544 4.96341 8.51668C4.56251 8.77841 4.22893 9.13093 3.98972 9.54566C3.75051 9.96039 3.61239 10.4257 3.58658 10.9037C3.56869 11.0745 3.59649 11.2469 3.66711 11.4034C3.73772 11.5599 3.84863 11.6949 3.98849 11.7945L1.5417 10.3823Z" fill="#90CAF9"/>
<path id="Vector_76" opacity="0.4" d="M1.98163 7.52274C1.88289 7.6943 1.85602 7.89796 1.90689 8.08927C1.95777 8.28057 2.08227 8.44397 2.25319 8.54382L5.20237 10.2547C5.45065 9.84389 5.58992 9.37652 5.607 8.89685C5.607 8.85069 5.607 8.80723 5.607 8.76378L3.00542 7.25389C2.9207 7.20373 2.82687 7.17089 2.72936 7.15726C2.63185 7.14363 2.5326 7.1495 2.43738 7.1745C2.34215 7.19951 2.25283 7.24317 2.1746 7.30294C2.09636 7.36272 2.03078 7.43743 1.98163 7.52274Z" fill="white"/>
<path id="Vector_77" d="M3.983 11.7972C3.84313 11.6976 3.73222 11.5626 3.6616 11.4061C3.59098 11.2496 3.5632 11.0772 3.58108 10.9064C3.6069 10.4284 3.74501 9.96309 3.98422 9.54837C4.22343 9.13364 4.55701 8.78112 4.95791 8.51939C5.09722 8.41815 5.26104 8.35596 5.43243 8.33925C5.60383 8.32254 5.77658 8.35191 5.93282 8.42434L7.70341 9.44813C7.92932 9.57457 8.12783 9.74466 8.28739 9.94853C8.44695 10.1524 8.56438 10.3859 8.63284 10.6356C8.70131 10.8853 8.71944 11.1461 8.68618 11.4028C8.65293 11.6595 8.56895 11.9071 8.43913 12.1311C8.30932 12.3551 8.13625 12.551 7.93002 12.7075C7.72378 12.8639 7.48849 12.9778 7.23782 13.0425C6.98716 13.1073 6.72613 13.1215 6.46992 13.0843C6.21372 13.0472 5.96745 12.9596 5.74544 12.8264L3.983 11.7972Z" fill="#F5F5F5"/>
<path id="Vector_78" opacity="0.1" d="M4.95799 8.51938C4.55709 8.78111 4.22352 9.13363 3.98431 9.54836C3.74509 9.96309 3.60698 10.4283 3.58116 10.9064C3.56328 11.0772 3.59107 11.2496 3.66168 11.4061C3.7323 11.5626 3.84321 11.6976 3.98308 11.7972L3.84458 11.7184L3.73866 11.6559C3.59838 11.5568 3.48715 11.4219 3.41649 11.2653C3.34583 11.1087 3.3183 10.936 3.33676 10.7652C3.36257 10.2871 3.50069 9.82187 3.7399 9.40715C3.97911 8.99242 4.31269 8.6399 4.71359 8.37816C4.85289 8.27693 5.01671 8.21474 5.18811 8.19803C5.35951 8.18132 5.53226 8.2107 5.6885 8.28312L5.9329 8.42433C5.77666 8.35191 5.60391 8.32253 5.43252 8.33924C5.26112 8.35595 5.0973 8.41814 4.95799 8.51938Z" fill="black"/>
<path id="Vector_79" d="M8.66487 10.9254C8.71064 11.3355 8.62405 11.7494 8.41775 12.1067C8.28969 12.3296 8.11895 12.525 7.91529 12.6819C7.71164 12.8387 7.47906 12.9538 7.23086 13.0206C6.98267 13.0875 6.72374 13.1047 6.46887 13.0714C6.21401 13.0381 5.96822 12.9548 5.74556 12.8264L3.97768 11.7944C3.83781 11.6949 3.72691 11.5599 3.65629 11.4034C3.58567 11.2469 3.55789 11.0745 3.57577 10.9037C3.57782 10.7018 3.60612 10.5009 3.65995 10.3063L6.61728 12.0171C7.59491 12.582 8.65401 11.5718 8.66487 10.9254Z" fill="#E0E0E0"/>
<path id="Vector_80" d="M7.9914 11.0069C7.89208 11.1777 7.72916 11.3021 7.5383 11.353C7.34744 11.4039 7.14419 11.3771 6.97304 11.2785L3.98584 9.54862C4.21735 9.12703 4.55299 8.77177 4.96075 8.51669L5.08024 8.45422L7.72256 9.98313C7.89376 10.0834 8.0182 10.2475 8.0686 10.4395C8.119 10.6314 8.09124 10.8354 7.9914 11.0069Z" fill="white"/>
<path id="Vector_81" opacity="0.1" d="M0.965971 7.51731C0.987997 7.48715 1.01157 7.45815 1.03658 7.43042C1.05231 7.40928 1.06955 7.38931 1.08818 7.37067L1.15063 7.30821L1.21581 7.24304L1.25383 7.21316C1.35649 7.12437 1.46849 7.04697 1.58785 6.98233C1.63083 6.9579 1.67527 6.93614 1.72092 6.91716C1.17779 7.24575 0.827475 8.66874 1.79967 9.23088C2.13098 9.42097 2.62794 9.71969 3.65717 10.3171C3.60333 10.5118 3.57503 10.7126 3.57298 10.9146C3.5551 11.0853 3.58289 11.2578 3.6535 11.4143C3.72412 11.5708 3.83504 11.7057 3.9749 11.8053L1.53083 10.3932C1.0833 10.1342 0.756771 9.70826 0.622878 9.20883C0.488984 8.7094 0.55866 8.17726 0.816614 7.72913C0.849202 7.67482 0.881788 7.62594 0.917091 7.57706C0.931204 7.55545 0.947589 7.53542 0.965971 7.51731Z" fill="black"/>
<g id="Vector_82" style="mix-blend-mode:hard-light" opacity="0.7">
<path d="M21.3496 18.407C21.3493 18.2779 21.3393 18.149 21.3197 18.0214C21.3197 17.9943 21.298 17.8992 21.2925 17.8802C21.1742 17.3483 20.952 16.845 20.6389 16.399C20.3258 15.9531 19.9277 15.5733 19.4676 15.2813L16.1681 13.3804L16.1383 13.3668C15.7824 13.14 15.3721 13.013 14.9503 12.9991C14.5285 12.9852 14.1107 13.0849 13.7407 13.2878C13.3706 13.4908 13.0619 13.7894 12.8469 14.1525C12.6319 14.5157 12.5184 14.9299 12.5183 15.3519C12.519 15.4795 12.5308 15.6067 12.5536 15.7321C12.5536 15.762 12.5726 15.8353 12.5808 15.8761C12.8187 16.95 13.4731 17.8857 14.4002 18.4776L17.6997 20.3786H17.7269C18.0824 20.6069 18.493 20.7353 18.9153 20.7501C19.3376 20.765 19.7561 20.6657 20.1268 20.4629C20.4975 20.26 20.8067 19.961 21.0218 19.5974C21.237 19.2337 21.3502 18.8187 21.3496 18.3962V18.407Z" fill="#FAFAFA"/>
</g>
<path id="Vector_83" d="M14.2861 14.3281C14.2861 15.4551 15.128 16.8537 16.1681 17.4538L19.4676 19.3548C20.5049 19.9549 21.3495 19.5286 21.3495 18.4016C21.3495 17.2746 20.5049 15.8761 19.4676 15.2759L16.1681 13.375C15.128 12.7748 14.2861 13.2012 14.2861 14.3281Z" fill="#E0E0E0"/>
<path id="Vector_84" d="M14.775 12.9975C14.1684 13.022 13.5947 13.2802 13.1741 13.718C12.7535 14.1558 12.5185 14.7394 12.5183 15.3465C12.519 15.474 12.5308 15.6012 12.5536 15.7267C12.5536 15.7566 12.5726 15.8299 12.5808 15.8706C12.79 16.7914 13.3003 17.616 14.0309 18.2142C13.1239 16.9541 12.6079 16.153 12.8279 14.9038C12.9188 14.4252 13.1542 13.9859 13.5023 13.6451C13.8504 13.3043 14.2946 13.0782 14.775 12.9975Z" fill="white"/>
<path id="Vector_85" d="M16.3365 18.8714C16.1966 18.7712 16.0857 18.6358 16.0151 18.4788C15.9446 18.3219 15.9167 18.1491 15.9346 17.978C15.9606 17.4999 16.0988 17.0348 16.338 16.6201C16.5772 16.2054 16.9106 15.8528 17.3114 15.5909C17.4511 15.4905 17.6148 15.4288 17.786 15.4121C17.9573 15.3954 18.1299 15.4243 18.2863 15.4959L20.0569 16.5224C20.2787 16.6506 20.4731 16.8212 20.629 17.0246C20.7849 17.2279 20.8992 17.4599 20.9653 17.7075C21.0315 17.955 21.0483 18.2131 21.0148 18.4671C20.9812 18.7211 20.898 18.966 20.7698 19.1878C20.6416 19.4096 20.4709 19.604 20.2676 19.7599C20.0642 19.9157 19.8322 20.03 19.5847 20.0962C19.3372 20.1624 19.0791 20.1792 18.8251 20.1457C18.5711 20.1121 18.3262 20.0288 18.1044 19.9006L16.3365 18.8714Z" fill="#F5F5F5"/>
<path id="Vector_86" d="M13.8924 17.4566C13.4444 17.1976 13.1177 16.7714 12.984 16.2715C12.8503 15.7716 12.9206 15.2391 13.1796 14.7912C13.4385 14.3432 13.8648 14.0164 14.3646 13.8827C14.8645 13.749 15.397 13.8194 15.845 14.0783L18.289 15.4959C18.1326 15.4243 17.96 15.3954 17.7888 15.4121C17.6175 15.4288 17.4538 15.4905 17.3141 15.5909C16.9134 15.8528 16.5799 16.2054 16.3407 16.6201C16.1015 17.0348 15.9633 17.4999 15.9373 17.978C15.9195 18.1491 15.9473 18.3219 16.0179 18.4788C16.0885 18.6358 16.1993 18.7712 16.3392 18.8714L13.8924 17.4566Z" fill="#90CAF9"/>
<path id="Vector_87" opacity="0.4" d="M14.3405 14.5943C14.2417 14.7658 14.2148 14.9695 14.2657 15.1608C14.3166 15.3521 14.4411 15.5155 14.612 15.6154L17.5612 17.3262C17.8095 16.9154 17.9488 16.4481 17.9658 15.9684C17.9658 15.9222 17.9658 15.8788 17.9658 15.8353L15.3643 14.3254C15.2794 14.2756 15.1856 14.2431 15.0882 14.2297C14.9907 14.2162 14.8916 14.2222 14.7965 14.2471C14.7014 14.2721 14.6121 14.3157 14.5338 14.3752C14.4556 14.4348 14.3899 14.5092 14.3405 14.5943Z" fill="white"/>
<path id="Vector_88" d="M16.3365 18.8714C16.1966 18.7712 16.0857 18.6358 16.0151 18.4788C15.9446 18.3219 15.9167 18.1491 15.9346 17.978C15.9606 17.4999 16.0988 17.0348 16.338 16.6201C16.5772 16.2054 16.9106 15.8528 17.3114 15.5909C17.4511 15.4905 17.6148 15.4288 17.786 15.4121C17.9573 15.3954 18.1299 15.4243 18.2863 15.4959L20.0569 16.5224C20.2787 16.6506 20.4731 16.8212 20.629 17.0246C20.7849 17.2279 20.8992 17.4599 20.9653 17.7075C21.0315 17.955 21.0483 18.2131 21.0148 18.4671C20.9812 18.7211 20.898 18.966 20.7698 19.1878C20.6416 19.4096 20.4709 19.604 20.2676 19.7599C20.0642 19.9157 19.8322 20.03 19.5847 20.0962C19.3372 20.1624 19.0791 20.1792 18.8251 20.1457C18.5711 20.1121 18.3262 20.0288 18.1044 19.9006L16.3365 18.8714Z" fill="#F5F5F5"/>
<path id="Vector_89" opacity="0.1" d="M17.3169 15.5909C16.9161 15.8528 16.5827 16.2053 16.3435 16.62C16.1043 17.0347 15.9661 17.4999 15.9401 17.9779C15.9223 18.1491 15.9501 18.3219 16.0206 18.4788C16.0912 18.6357 16.2021 18.7712 16.342 18.8714L16.2035 18.7899L16.0976 18.7302C15.9573 18.6304 15.8461 18.495 15.7755 18.338C15.7048 18.1809 15.6773 18.0079 15.6957 17.8367C15.7217 17.3587 15.8599 16.8935 16.0991 16.4788C16.3383 16.0641 16.6717 15.7116 17.0725 15.4497C17.2118 15.3484 17.3756 15.2863 17.547 15.2695C17.7184 15.2528 17.8912 15.2822 18.0474 15.3546L18.2918 15.4958C18.1354 15.4243 17.9628 15.3953 17.7915 15.412C17.6203 15.4287 17.4566 15.4904 17.3169 15.5909Z" fill="black"/>
<path id="Vector_90" d="M21.0237 18.0051C21.0694 18.4152 20.9828 18.8291 20.7765 19.1864C20.5175 19.6347 20.0911 19.9617 19.591 20.0957C19.091 20.2296 18.5582 20.1594 18.1098 19.9006L16.3365 18.8714C16.1966 18.7712 16.0857 18.6358 16.0151 18.4788C15.9446 18.3219 15.9167 18.1491 15.9346 17.978C15.9366 17.776 15.9649 17.5752 16.0187 17.3805L18.9761 19.0914C19.9537 19.6535 21.0128 18.6433 21.0237 18.0051Z" fill="#E0E0E0"/>
<path id="Vector_91" d="M20.3503 18.0784C20.3013 18.1632 20.2362 18.2376 20.1585 18.2971C20.0808 18.3567 19.9921 18.4004 19.8974 18.4256C19.8028 18.4508 19.7042 18.4571 19.6071 18.4442C19.5101 18.4312 19.4166 18.3992 19.3319 18.35L16.3365 16.6283C16.5688 16.2073 16.9043 15.8522 17.3115 15.5963L17.4309 15.5366L20.0733 17.0655C20.2435 17.1639 20.368 17.3254 20.4199 17.5151C20.4717 17.7047 20.4467 17.9071 20.3503 18.0784Z" fill="white"/>
<path id="Vector_92" opacity="0.1" d="M13.3249 14.5889C13.3469 14.5587 13.3705 14.5297 13.3955 14.502C13.4118 14.4829 13.4281 14.4612 13.4471 14.4422L13.5096 14.3797L13.5775 14.3146L13.6128 14.2847C13.7155 14.1968 13.8275 14.1203 13.9468 14.0566C13.9885 14.0316 14.0321 14.0098 14.0771 13.9914C13.534 14.3227 13.1837 15.743 14.1559 16.3051C14.4872 16.4979 14.9869 16.7939 16.0134 17.3914C15.9595 17.586 15.9312 17.7869 15.9292 17.9888C15.9114 18.16 15.9392 18.3328 16.0098 18.4897C16.0804 18.6466 16.1912 18.7821 16.3311 18.8823L13.887 17.4674C13.6651 17.3395 13.4707 17.169 13.3147 16.9658C13.1588 16.7625 13.0446 16.5305 12.9785 16.283C12.9124 16.0356 12.8958 15.7775 12.9296 15.5236C12.9634 15.2697 13.047 15.0249 13.1755 14.8034C13.2056 14.7511 13.2382 14.7003 13.2733 14.6513L13.3249 14.5889Z" fill="black"/>
</g>
</svg>
