<svg width="26" height="25" viewBox="0 0 26 25" fill="none" xmlns="http://www.w3.org/2000/svg">
<g id="Group 27">
<g id="Group">
<path id="Vector" d="M9.12513 23.3149C8.33797 23.7448 7.44407 24 6.48347 24C3.45489 24 1 21.5283 1 18.479V12.3266H9.67215" stroke="white" stroke-miterlimit="10" stroke-linecap="round" stroke-linejoin="round"/>
<path id="Vector_2" d="M9.67215 12.3266H1V6.18768C1 3.13837 3.45489 0.666672 6.48347 0.666672C7.99109 0.666672 9.36528 1.2846 10.3526 2.27865C11.3399 3.2727 11.9536 4.65632 11.9536 6.17426V9.54597" stroke="white" stroke-miterlimit="10" stroke-linecap="round" stroke-linejoin="round"/>
<g id="Group_2">
<path id="Vector_3" d="M3.01447 14.2475C3.29429 14.2475 3.52114 14.019 3.52114 13.7371C3.52114 13.4551 3.29429 13.2266 3.01447 13.2266C2.73464 13.2266 2.50781 13.4551 2.50781 13.7371C2.50781 14.019 2.73464 14.2475 3.01447 14.2475Z" fill="#0079AB"/>
<path id="Vector_4" d="M6.45654 14.2475C6.73637 14.2475 6.96322 14.019 6.96322 13.7371C6.96322 13.4551 6.73637 13.2266 6.45654 13.2266C6.17672 13.2266 5.94989 13.4551 5.94989 13.7371C5.94989 14.019 6.17672 14.2475 6.45654 14.2475Z" fill="#0079AB"/>
<path id="Vector_5" d="M3.01447 17.4849C3.29429 17.4849 3.52114 17.2564 3.52114 16.9744C3.52114 16.6925 3.29429 16.464 3.01447 16.464C2.73464 16.464 2.50781 16.6925 2.50781 16.9744C2.50781 17.2564 2.73464 17.4849 3.01447 17.4849Z" fill="#0079AB"/>
<path id="Vector_6" d="M6.82985 16.9341C6.82985 17.2162 6.7232 17.4849 6.4432 17.4849C6.1632 17.4849 5.93652 17.2565 5.93652 16.9744C5.93652 16.6923 6.1632 16.464 6.4432 16.464C6.73653 16.464 6.82985 16.6521 6.82985 16.9341Z" fill="#0079AB"/>
<path id="Vector_7" d="M3.01447 20.7223C3.29429 20.7223 3.52114 20.4938 3.52114 20.2118C3.52114 19.9299 3.29429 19.7014 3.01447 19.7014C2.73464 19.7014 2.50781 19.9299 2.50781 20.2118C2.50781 20.4938 2.73464 20.7223 3.01447 20.7223Z" fill="#0079AB"/>
<path id="Vector_8" d="M6.90987 20.2521C6.90987 20.5342 6.73654 20.7223 6.45654 20.7223C6.17654 20.7223 5.94989 20.4939 5.94989 20.2118C5.94989 19.9297 6.17654 19.7014 6.45654 19.7014C6.73654 19.7014 6.90987 19.97 6.90987 20.2521Z" fill="#0079AB"/>
<path id="Vector_9" d="M4.70882 15.8596C4.98865 15.8596 5.21549 15.631 5.21549 15.3491C5.21549 15.0672 4.98865 14.8387 4.70882 14.8387C4.429 14.8387 4.20215 15.0672 4.20215 15.3491C4.20215 15.631 4.429 15.8596 4.70882 15.8596Z" fill="#0079AB"/>
<path id="Vector_10" d="M4.70882 19.0969C4.98865 19.0969 5.21549 18.8684 5.21549 18.5864C5.21549 18.3045 4.98865 18.076 4.70882 18.076C4.429 18.076 4.20215 18.3045 4.20215 18.5864C4.20215 18.8684 4.429 19.0969 4.70882 19.0969Z" fill="#0079AB"/>
<path id="Vector_11" d="M4.70882 22.4015C4.98865 22.4015 5.21549 22.173 5.21549 21.891C5.21549 21.6091 4.98865 21.3806 4.70882 21.3806C4.429 21.3806 4.20215 21.6091 4.20215 21.891C4.20215 22.173 4.429 22.4015 4.70882 22.4015Z" fill="#0079AB"/>
</g>
<path id="Vector_12" d="M11.4066 10.2177L15.3157 5.48924C17.2502 3.15188 20.7058 2.82948 23.0272 4.77729C25.3487 6.72509 25.6689 10.2043 23.7343 12.5416L19.8252 17.2701L11.4066 10.2177Z" stroke="white" stroke-miterlimit="10" stroke-linecap="round" stroke-linejoin="round"/>
<path id="Vector_13" d="M7.51085 14.9327L11.4066 10.2177L19.8253 17.27L15.9295 21.9851C13.9949 24.3224 10.5394 24.6448 8.21796 22.697C7.05723 21.7164 6.39013 20.3597 6.27005 18.9626C6.13664 17.5656 6.5369 16.1014 7.51085 14.9327Z" stroke="white" stroke-miterlimit="10" stroke-linecap="round" stroke-linejoin="round"/>
<g id="Group_3">
<path id="Vector_14" d="M19.171 15.3893C19.4508 15.3893 19.6777 15.1608 19.6777 14.8789C19.6777 14.5969 19.4508 14.3684 19.171 14.3684C18.8912 14.3684 18.6644 14.5969 18.6644 14.8789C18.6644 15.1608 18.8912 15.3893 19.171 15.3893Z" fill="white"/>
<path id="Vector_15" d="M16.5428 13.1863C16.8226 13.1863 17.0495 12.9577 17.0495 12.6758C17.0495 12.3939 16.8226 12.1654 16.5428 12.1654C16.263 12.1654 16.0361 12.3939 16.0361 12.6758C16.0361 12.9577 16.263 13.1863 16.5428 13.1863Z" fill="white"/>
<path id="Vector_16" d="M13.9012 10.9698C14.181 10.9698 14.4079 10.7413 14.4079 10.4594C14.4079 10.1774 14.181 9.9489 13.9012 9.9489C13.6214 9.9489 13.3945 10.1774 13.3945 10.4594C13.3945 10.7413 13.6214 10.9698 13.9012 10.9698Z" fill="white"/>
<path id="Vector_17" d="M21.2257 12.9042C21.5056 12.9042 21.7324 12.6757 21.7324 12.3938C21.7324 12.1118 21.5056 11.8833 21.2257 11.8833C20.9459 11.8833 20.7191 12.1118 20.7191 12.3938C20.7191 12.6757 20.9459 12.9042 21.2257 12.9042Z" fill="white"/>
<path id="Vector_18" d="M18.5975 10.7012C18.8773 10.7012 19.1041 10.4726 19.1041 10.1907C19.1041 9.9088 18.8773 9.68025 18.5975 9.68025C18.3177 9.68025 18.0908 9.9088 18.0908 10.1907C18.0908 10.4726 18.3177 10.7012 18.5975 10.7012Z" fill="white"/>
<path id="Vector_19" d="M15.9559 8.4847C16.2357 8.4847 16.4625 8.25616 16.4625 7.97425C16.4625 7.69233 16.2357 7.46379 15.9559 7.46379C15.6761 7.46379 15.4492 7.69233 15.4492 7.97425C15.4492 8.25616 15.6761 8.4847 15.9559 8.4847Z" fill="white"/>
<path id="Vector_20" d="M23.2804 10.419C23.5602 10.419 23.7871 10.1905 23.7871 9.90858C23.7871 9.62666 23.5602 9.39812 23.2804 9.39812C23.0006 9.39812 22.7737 9.62666 22.7737 9.90858C22.7737 10.1905 23.0006 10.419 23.2804 10.419Z" fill="white"/>
<path id="Vector_21" d="M20.6522 8.20263C20.932 8.20263 21.1588 7.97409 21.1588 7.69217C21.1588 7.41025 20.932 7.18172 20.6522 7.18172C20.3723 7.18172 20.1455 7.41025 20.1455 7.69217C20.1455 7.97409 20.3723 8.20263 20.6522 8.20263Z" fill="white"/>
<path id="Vector_22" d="M18.0103 5.9996C18.2901 5.9996 18.5169 5.77107 18.5169 5.48915C18.5169 5.20723 18.2901 4.97868 18.0103 4.97868C17.7304 4.97868 17.5036 5.20723 17.5036 5.48915C17.5036 5.77107 17.7304 5.9996 18.0103 5.9996Z" fill="white"/>
<path id="Vector_23" d="M18.9044 13.0654C19.1843 13.0654 19.4111 12.8369 19.4111 12.555C19.4111 12.2731 19.1843 12.0445 18.9044 12.0445C18.6246 12.0445 18.3978 12.2731 18.3978 12.555C18.3978 12.8369 18.6246 13.0654 18.9044 13.0654Z" fill="white"/>
<path id="Vector_24" d="M16.2762 10.8489C16.556 10.8489 16.7829 10.6203 16.7829 10.3384C16.7829 10.0565 16.556 9.82796 16.2762 9.82796C15.9964 9.82796 15.7695 10.0565 15.7695 10.3384C15.7695 10.6203 15.9964 10.8489 16.2762 10.8489Z" fill="white"/>
<path id="Vector_25" d="M20.9591 10.5802C21.239 10.5802 21.4658 10.3517 21.4658 10.0698C21.4658 9.78786 21.239 9.55933 20.9591 9.55933C20.6793 9.55933 20.4525 9.78786 20.4525 10.0698C20.4525 10.3517 20.6793 10.5802 20.9591 10.5802Z" fill="white"/>
<path id="Vector_26" d="M18.3309 8.36377C18.6107 8.36377 18.8375 8.13523 18.8375 7.85331C18.8375 7.5714 18.6107 7.34285 18.3309 7.34285C18.0511 7.34285 17.8242 7.5714 17.8242 7.85331C17.8242 8.13523 18.0511 8.36377 18.3309 8.36377Z" fill="white"/>
<path id="Vector_27" d="M23.0669 8.04143C23.3467 8.04143 23.5736 7.81288 23.5736 7.53096C23.5736 7.24904 23.3467 7.02051 23.0669 7.02051C22.7871 7.02051 22.5602 7.24904 22.5602 7.53096C22.5602 7.81288 22.7871 8.04143 23.0669 8.04143Z" fill="white"/>
<path id="Vector_28" d="M20.4253 5.83838C20.7051 5.83838 20.932 5.60983 20.932 5.32791C20.932 5.046 20.7051 4.81746 20.4253 4.81746C20.1455 4.81746 19.9186 5.046 19.9186 5.32791C19.9186 5.60983 20.1455 5.83838 20.4253 5.83838Z" fill="white"/>
</g>
</g>
</g>
</svg>
